<svg width="32" height="32" viewBox="0 0 32 32" fill="none" xmlns="http://www.w3.org/2000/svg">
<path d="M21.3335 10.6665C23.4552 10.6665 25.4901 11.5094 26.9904 13.0097C28.4906 14.5099 29.3335 16.5448 29.3335 18.6665V27.9998H24.0002V18.6665C24.0002 17.9593 23.7192 17.281 23.2191 16.7809C22.719 16.2808 22.0407 15.9998 21.3335 15.9998C20.6263 15.9998 19.948 16.2808 19.4479 16.7809C18.9478 17.281 18.6668 17.9593 18.6668 18.6665V27.9998H13.3335V18.6665C13.3335 16.5448 14.1764 14.5099 15.6766 13.0097C17.1769 11.5094 19.2118 10.6665 21.3335 10.6665Z" stroke="#474747" stroke-width="3" stroke-linecap="round" stroke-linejoin="round"/>
<path d="M7.99984 12H2.6665V28H7.99984V12Z" stroke="#474747" stroke-width="3" stroke-linecap="round" stroke-linejoin="round"/>
<path d="M5.33317 7.99984C6.80593 7.99984 7.99984 6.80593 7.99984 5.33317C7.99984 3.86041 6.80593 2.6665 5.33317 2.6665C3.86041 2.6665 2.6665 3.86041 2.6665 5.33317C2.6665 6.80593 3.86041 7.99984 5.33317 7.99984Z" stroke="#474747" stroke-width="3" stroke-linecap="round" stroke-linejoin="round"/>
</svg>
