<svg width="1440" height="678" viewBox="0 0 1440 678" fill="none" xmlns="http://www.w3.org/2000/svg">
<circle cx="33.8504" cy="200.388" r="106.85" stroke="#F5E0CB" stroke-width="2"/>
<circle cx="781.803" cy="200.388" r="106.85" stroke="#F5E0CB" stroke-width="2"/>
<circle cx="461.252" cy="200.388" r="106.85" stroke="#F5E0CB" stroke-width="2"/>
<circle cx="1209.2" cy="200.388" r="106.85" stroke="#F5E0CB" stroke-width="2"/>
<circle cx="247.551" cy="200.388" r="106.85" stroke="#F5E0CB" stroke-width="2"/>
<circle cx="995.504" cy="200.388" r="106.85" stroke="#F5E0CB" stroke-width="2"/>
<circle cx="674.953" cy="200.388" r="106.85" stroke="#F5E0CB" stroke-width="2"/>
<circle cx="1422.91" cy="200.388" r="106.85" stroke="#F5E0CB" stroke-width="2"/>
<circle cx="33.8504" cy="200.388" r="106.85" stroke="#F5E0CB" stroke-width="2"/>
<circle cx="781.803" cy="200.388" r="106.85" stroke="#F5E0CB" stroke-width="2"/>
<circle cx="140.701" cy="200.388" r="106.85" stroke="#F5E0CB" stroke-width="2"/>
<circle cx="888.654" cy="200.388" r="106.85" stroke="#F5E0CB" stroke-width="2"/>
<circle cx="568.102" cy="200.388" r="106.85" stroke="#F5E0CB" stroke-width="2"/>
<circle cx="1316.05" cy="200.388" r="106.85" stroke="#F5E0CB" stroke-width="2"/>
<circle cx="354.402" cy="200.388" r="106.85" stroke="#F5E0CB" stroke-width="2"/>
<circle cx="1102.35" cy="200.388" r="106.85" stroke="#F5E0CB" stroke-width="2"/>
<circle cx="781.803" cy="200.388" r="106.85" stroke="#F5E0CB" stroke-width="2"/>
<circle cx="1529.76" cy="200.388" r="106.85" stroke="#F5E0CB" stroke-width="2"/>
<circle cx="87.2757" cy="292.926" r="106.85" stroke="#F5E0CB" stroke-width="2"/>
<circle cx="835.228" cy="292.926" r="106.85" stroke="#F5E0CB" stroke-width="2"/>
<circle cx="514.677" cy="292.926" r="106.85" stroke="#F5E0CB" stroke-width="2"/>
<circle cx="1262.63" cy="292.926" r="106.85" stroke="#F5E0CB" stroke-width="2"/>
<circle cx="300.976" cy="292.926" r="106.85" stroke="#F5E0CB" stroke-width="2"/>
<circle cx="1048.93" cy="292.926" r="106.85" stroke="#F5E0CB" stroke-width="2"/>
<circle cx="728.378" cy="292.926" r="106.85" stroke="#F5E0CB" stroke-width="2"/>
<circle cx="1476.33" cy="292.926" r="106.85" stroke="#F5E0CB" stroke-width="2"/>
<circle cx="194.126" cy="107.855" r="106.85" stroke="#F5E0CB" stroke-width="2"/>
<circle cx="942.079" cy="107.855" r="106.85" stroke="#F5E0CB" stroke-width="2"/>
<circle cx="621.528" cy="107.855" r="106.85" stroke="#F5E0CB" stroke-width="2"/>
<circle cx="1369.48" cy="107.855" r="106.85" stroke="#F5E0CB" stroke-width="2"/>
<circle cx="407.827" cy="107.855" r="106.85" stroke="#F5E0CB" stroke-width="2"/>
<circle cx="1155.78" cy="107.855" r="106.85" stroke="#F5E0CB" stroke-width="2"/>
<circle cx="835.228" cy="107.855" r="106.85" stroke="#F5E0CB" stroke-width="2"/>
<circle cx="87.2757" cy="107.85" r="106.85" stroke="#F5E0CB" stroke-width="2"/>
<circle cx="835.228" cy="107.85" r="106.85" stroke="#F5E0CB" stroke-width="2"/>
<circle cx="514.677" cy="107.85" r="106.85" stroke="#F5E0CB" stroke-width="2"/>
<circle cx="1262.63" cy="107.85" r="106.85" stroke="#F5E0CB" stroke-width="2"/>
<circle cx="300.976" cy="107.85" r="106.85" stroke="#F5E0CB" stroke-width="2"/>
<circle cx="1048.93" cy="107.85" r="106.85" stroke="#F5E0CB" stroke-width="2"/>
<circle cx="728.378" cy="107.85" r="106.85" stroke="#F5E0CB" stroke-width="2"/>
<circle cx="1476.33" cy="107.85" r="106.85" stroke="#F5E0CB" stroke-width="2"/>
<circle cx="194.126" cy="292.921" r="106.85" stroke="#F5E0CB" stroke-width="2"/>
<circle cx="942.079" cy="292.921" r="106.85" stroke="#F5E0CB" stroke-width="2"/>
<circle cx="621.528" cy="292.921" r="106.85" stroke="#F5E0CB" stroke-width="2"/>
<circle cx="1369.48" cy="292.921" r="106.85" stroke="#F5E0CB" stroke-width="2"/>
<circle cx="407.827" cy="292.921" r="106.85" stroke="#F5E0CB" stroke-width="2"/>
<circle cx="1155.78" cy="292.921" r="106.85" stroke="#F5E0CB" stroke-width="2"/>
<circle cx="835.228" cy="292.921" r="106.85" stroke="#F5E0CB" stroke-width="2"/>
<circle cx="33.8504" cy="385.528" r="106.85" stroke="#F5E0CB" stroke-width="2"/>
<circle cx="781.803" cy="385.528" r="106.85" stroke="#F5E0CB" stroke-width="2"/>
<circle cx="461.252" cy="385.528" r="106.85" stroke="#F5E0CB" stroke-width="2"/>
<circle cx="1209.2" cy="385.528" r="106.85" stroke="#F5E0CB" stroke-width="2"/>
<circle cx="247.551" cy="385.528" r="106.85" stroke="#F5E0CB" stroke-width="2"/>
<circle cx="995.504" cy="385.528" r="106.85" stroke="#F5E0CB" stroke-width="2"/>
<circle cx="674.953" cy="385.528" r="106.85" stroke="#F5E0CB" stroke-width="2"/>
<circle cx="1422.91" cy="385.528" r="106.85" stroke="#F5E0CB" stroke-width="2"/>
<circle cx="33.8504" cy="385.528" r="106.85" stroke="#F5E0CB" stroke-width="2"/>
<circle cx="781.803" cy="385.528" r="106.85" stroke="#F5E0CB" stroke-width="2"/>
<circle cx="140.701" cy="385.528" r="106.85" stroke="#F5E0CB" stroke-width="2"/>
<circle cx="888.654" cy="385.528" r="106.85" stroke="#F5E0CB" stroke-width="2"/>
<circle cx="568.102" cy="385.528" r="106.85" stroke="#F5E0CB" stroke-width="2"/>
<circle cx="1316.05" cy="385.528" r="106.85" stroke="#F5E0CB" stroke-width="2"/>
<circle cx="354.402" cy="385.528" r="106.85" stroke="#F5E0CB" stroke-width="2"/>
<circle cx="1102.35" cy="385.528" r="106.85" stroke="#F5E0CB" stroke-width="2"/>
<circle cx="781.803" cy="385.528" r="106.85" stroke="#F5E0CB" stroke-width="2"/>
<circle cx="1529.76" cy="385.528" r="106.85" stroke="#F5E0CB" stroke-width="2"/>
<circle cx="33.8504" cy="385.594" r="106.85" stroke="#F5E0CB" stroke-width="2"/>
<circle cx="461.252" cy="385.594" r="106.85" stroke="#F5E0CB" stroke-width="2"/>
<circle cx="247.551" cy="385.594" r="106.85" stroke="#F5E0CB" stroke-width="2"/>
<circle cx="674.953" cy="385.594" r="106.85" stroke="#F5E0CB" stroke-width="2"/>
<circle cx="33.8504" cy="385.594" r="106.85" stroke="#F5E0CB" stroke-width="2"/>
<circle cx="140.701" cy="385.594" r="106.85" stroke="#F5E0CB" stroke-width="2"/>
<circle cx="568.102" cy="385.594" r="106.85" stroke="#F5E0CB" stroke-width="2"/>
<circle cx="354.402" cy="385.594" r="106.85" stroke="#F5E0CB" stroke-width="2"/>
<circle cx="781.803" cy="385.594" r="106.85" stroke="#F5E0CB" stroke-width="2"/>
<circle cx="87.2757" cy="478.131" r="106.85" stroke="#F5E0CB" stroke-width="2"/>
<circle cx="514.677" cy="478.131" r="106.85" stroke="#F5E0CB" stroke-width="2"/>
<circle cx="300.976" cy="478.131" r="106.85" stroke="#F5E0CB" stroke-width="2"/>
<circle cx="728.378" cy="478.131" r="106.85" stroke="#F5E0CB" stroke-width="2"/>
<circle cx="194.126" cy="293.06" r="106.85" stroke="#F5E0CB" stroke-width="2"/>
<circle cx="621.528" cy="293.06" r="106.85" stroke="#F5E0CB" stroke-width="2"/>
<circle cx="407.827" cy="293.06" r="106.85" stroke="#F5E0CB" stroke-width="2"/>
<circle cx="835.228" cy="293.06" r="106.85" stroke="#F5E0CB" stroke-width="2"/>
<circle cx="87.2757" cy="293.056" r="106.85" stroke="#F5E0CB" stroke-width="2"/>
<circle cx="514.677" cy="293.056" r="106.85" stroke="#F5E0CB" stroke-width="2"/>
<circle cx="300.976" cy="293.056" r="106.85" stroke="#F5E0CB" stroke-width="2"/>
<circle cx="728.378" cy="293.056" r="106.85" stroke="#F5E0CB" stroke-width="2"/>
<circle cx="194.126" cy="478.127" r="106.85" stroke="#F5E0CB" stroke-width="2"/>
<circle cx="621.528" cy="478.127" r="106.85" stroke="#F5E0CB" stroke-width="2"/>
<circle cx="407.827" cy="478.127" r="106.85" stroke="#F5E0CB" stroke-width="2"/>
<circle cx="835.228" cy="478.127" r="106.85" stroke="#F5E0CB" stroke-width="2"/>
<circle cx="33.8504" cy="570.734" r="106.85" stroke="#F5E0CB" stroke-width="2"/>
<circle cx="461.252" cy="570.734" r="106.85" stroke="#F5E0CB" stroke-width="2"/>
<circle cx="247.551" cy="570.734" r="106.85" stroke="#F5E0CB" stroke-width="2"/>
<circle cx="674.953" cy="570.734" r="106.85" stroke="#F5E0CB" stroke-width="2"/>
<circle cx="33.8504" cy="570.734" r="106.85" stroke="#F5E0CB" stroke-width="2"/>
<circle cx="140.701" cy="570.734" r="106.85" stroke="#F5E0CB" stroke-width="2"/>
<circle cx="568.102" cy="570.734" r="106.85" stroke="#F5E0CB" stroke-width="2"/>
<circle cx="354.402" cy="570.734" r="106.85" stroke="#F5E0CB" stroke-width="2"/>
<circle cx="781.803" cy="570.734" r="106.85" stroke="#F5E0CB" stroke-width="2"/>
<circle cx="781.803" cy="385.594" r="106.85" stroke="#F5E0CB" stroke-width="2"/>
<circle cx="1209.2" cy="385.594" r="106.85" stroke="#F5E0CB" stroke-width="2"/>
<circle cx="995.504" cy="385.594" r="106.85" stroke="#F5E0CB" stroke-width="2"/>
<circle cx="1422.91" cy="385.594" r="106.85" stroke="#F5E0CB" stroke-width="2"/>
<circle cx="781.803" cy="385.594" r="106.85" stroke="#F5E0CB" stroke-width="2"/>
<circle cx="888.654" cy="385.594" r="106.85" stroke="#F5E0CB" stroke-width="2"/>
<circle cx="1316.06" cy="385.594" r="106.85" stroke="#F5E0CB" stroke-width="2"/>
<circle cx="1102.35" cy="385.594" r="106.85" stroke="#F5E0CB" stroke-width="2"/>
<circle cx="1529.76" cy="385.594" r="106.85" stroke="#F5E0CB" stroke-width="2"/>
<circle cx="835.229" cy="478.131" r="106.85" stroke="#F5E0CB" stroke-width="2"/>
<circle cx="1262.63" cy="478.131" r="106.85" stroke="#F5E0CB" stroke-width="2"/>
<circle cx="1048.93" cy="478.131" r="106.85" stroke="#F5E0CB" stroke-width="2"/>
<circle cx="1476.33" cy="478.131" r="106.85" stroke="#F5E0CB" stroke-width="2"/>
<circle cx="942.079" cy="293.06" r="106.85" stroke="#F5E0CB" stroke-width="2"/>
<circle cx="1369.48" cy="293.06" r="106.85" stroke="#F5E0CB" stroke-width="2"/>
<circle cx="1155.78" cy="293.06" r="106.85" stroke="#F5E0CB" stroke-width="2"/>
<circle cx="835.229" cy="293.056" r="106.85" stroke="#F5E0CB" stroke-width="2"/>
<circle cx="1262.63" cy="293.056" r="106.85" stroke="#F5E0CB" stroke-width="2"/>
<circle cx="1048.93" cy="293.056" r="106.85" stroke="#F5E0CB" stroke-width="2"/>
<circle cx="1476.33" cy="293.056" r="106.85" stroke="#F5E0CB" stroke-width="2"/>
<circle cx="942.079" cy="478.127" r="106.85" stroke="#F5E0CB" stroke-width="2"/>
<circle cx="1369.48" cy="478.127" r="106.85" stroke="#F5E0CB" stroke-width="2"/>
<circle cx="1155.78" cy="478.127" r="106.85" stroke="#F5E0CB" stroke-width="2"/>
<circle cx="781.803" cy="570.734" r="106.85" stroke="#F5E0CB" stroke-width="2"/>
<circle cx="1209.2" cy="570.734" r="106.85" stroke="#F5E0CB" stroke-width="2"/>
<circle cx="995.504" cy="570.734" r="106.85" stroke="#F5E0CB" stroke-width="2"/>
<circle cx="1422.91" cy="570.734" r="106.85" stroke="#F5E0CB" stroke-width="2"/>
<circle cx="781.803" cy="570.734" r="106.85" stroke="#F5E0CB" stroke-width="2"/>
<circle cx="888.654" cy="570.734" r="106.85" stroke="#F5E0CB" stroke-width="2"/>
<circle cx="1316.06" cy="570.734" r="106.85" stroke="#F5E0CB" stroke-width="2"/>
<circle cx="1102.35" cy="570.734" r="106.85" stroke="#F5E0CB" stroke-width="2"/>
<circle cx="1529.76" cy="570.734" r="106.85" stroke="#F5E0CB" stroke-width="2"/>
<circle cx="33.8504" cy="570.804" r="106.85" stroke="#F5E0CB" stroke-width="2"/>
<circle cx="781.803" cy="570.804" r="106.85" stroke="#F5E0CB" stroke-width="2"/>
<circle cx="461.252" cy="570.804" r="106.85" stroke="#F5E0CB" stroke-width="2"/>
<circle cx="1209.2" cy="570.804" r="106.85" stroke="#F5E0CB" stroke-width="2"/>
<circle cx="247.551" cy="570.804" r="106.85" stroke="#F5E0CB" stroke-width="2"/>
<circle cx="995.504" cy="570.804" r="106.85" stroke="#F5E0CB" stroke-width="2"/>
<circle cx="674.953" cy="570.804" r="106.85" stroke="#F5E0CB" stroke-width="2"/>
<circle cx="1422.91" cy="570.804" r="106.85" stroke="#F5E0CB" stroke-width="2"/>
<circle cx="33.8504" cy="570.804" r="106.85" stroke="#F5E0CB" stroke-width="2"/>
<circle cx="781.803" cy="570.804" r="106.85" stroke="#F5E0CB" stroke-width="2"/>
<circle cx="140.701" cy="570.804" r="106.85" stroke="#F5E0CB" stroke-width="2"/>
<circle cx="888.654" cy="570.804" r="106.85" stroke="#F5E0CB" stroke-width="2"/>
<circle cx="568.102" cy="570.804" r="106.85" stroke="#F5E0CB" stroke-width="2"/>
<circle cx="1316.05" cy="570.804" r="106.85" stroke="#F5E0CB" stroke-width="2"/>
<circle cx="354.402" cy="570.804" r="106.85" stroke="#F5E0CB" stroke-width="2"/>
<circle cx="1102.35" cy="570.804" r="106.85" stroke="#F5E0CB" stroke-width="2"/>
<circle cx="781.803" cy="570.804" r="106.85" stroke="#F5E0CB" stroke-width="2"/>
<circle cx="1529.76" cy="570.804" r="106.85" stroke="#F5E0CB" stroke-width="2"/>
<circle cx="87.2757" cy="663.341" r="106.85" stroke="#F5E0CB" stroke-width="2"/>
<circle cx="835.228" cy="663.341" r="106.85" stroke="#F5E0CB" stroke-width="2"/>
<circle cx="514.677" cy="663.341" r="106.85" stroke="#F5E0CB" stroke-width="2"/>
<circle cx="1262.63" cy="663.341" r="106.85" stroke="#F5E0CB" stroke-width="2"/>
<circle cx="300.976" cy="663.341" r="106.85" stroke="#F5E0CB" stroke-width="2"/>
<circle cx="1048.93" cy="663.341" r="106.85" stroke="#F5E0CB" stroke-width="2"/>
<circle cx="728.378" cy="663.341" r="106.85" stroke="#F5E0CB" stroke-width="2"/>
<circle cx="1476.33" cy="663.341" r="106.85" stroke="#F5E0CB" stroke-width="2"/>
<circle cx="194.126" cy="478.27" r="106.85" stroke="#F5E0CB" stroke-width="2"/>
<circle cx="942.079" cy="478.27" r="106.85" stroke="#F5E0CB" stroke-width="2"/>
<circle cx="621.528" cy="478.27" r="106.85" stroke="#F5E0CB" stroke-width="2"/>
<circle cx="1369.48" cy="478.27" r="106.85" stroke="#F5E0CB" stroke-width="2"/>
<circle cx="407.827" cy="478.27" r="106.85" stroke="#F5E0CB" stroke-width="2"/>
<circle cx="1155.78" cy="478.27" r="106.85" stroke="#F5E0CB" stroke-width="2"/>
<circle cx="835.228" cy="478.27" r="106.85" stroke="#F5E0CB" stroke-width="2"/>
<circle cx="87.2757" cy="478.266" r="106.85" stroke="#F5E0CB" stroke-width="2"/>
<circle cx="835.228" cy="478.266" r="106.85" stroke="#F5E0CB" stroke-width="2"/>
<circle cx="514.677" cy="478.266" r="106.85" stroke="#F5E0CB" stroke-width="2"/>
<circle cx="1262.63" cy="478.266" r="106.85" stroke="#F5E0CB" stroke-width="2"/>
<circle cx="300.976" cy="478.266" r="106.85" stroke="#F5E0CB" stroke-width="2"/>
<circle cx="1048.93" cy="478.266" r="106.85" stroke="#F5E0CB" stroke-width="2"/>
<circle cx="728.378" cy="478.266" r="106.85" stroke="#F5E0CB" stroke-width="2"/>
<circle cx="1476.33" cy="478.266" r="106.85" stroke="#F5E0CB" stroke-width="2"/>
<circle cx="194.126" cy="663.337" r="106.85" stroke="#F5E0CB" stroke-width="2"/>
<circle cx="942.079" cy="663.337" r="106.85" stroke="#F5E0CB" stroke-width="2"/>
<circle cx="621.528" cy="663.337" r="106.85" stroke="#F5E0CB" stroke-width="2"/>
<circle cx="1369.48" cy="663.337" r="106.85" stroke="#F5E0CB" stroke-width="2"/>
<circle cx="407.827" cy="663.337" r="106.85" stroke="#F5E0CB" stroke-width="2"/>
<circle cx="1155.78" cy="663.337" r="106.85" stroke="#F5E0CB" stroke-width="2"/>
<circle cx="835.228" cy="663.337" r="106.85" stroke="#F5E0CB" stroke-width="2"/>
<circle cx="33.8504" cy="755.944" r="106.85" stroke="#F5E0CB" stroke-width="2"/>
<circle cx="781.803" cy="755.944" r="106.85" stroke="#F5E0CB" stroke-width="2"/>
<circle cx="461.252" cy="755.944" r="106.85" stroke="#F5E0CB" stroke-width="2"/>
<circle cx="1209.2" cy="755.944" r="106.85" stroke="#F5E0CB" stroke-width="2"/>
<circle cx="247.551" cy="755.944" r="106.85" stroke="#F5E0CB" stroke-width="2"/>
<circle cx="995.504" cy="755.944" r="106.85" stroke="#F5E0CB" stroke-width="2"/>
<circle cx="674.953" cy="755.944" r="106.85" stroke="#F5E0CB" stroke-width="2"/>
<circle cx="1422.91" cy="755.944" r="106.85" stroke="#F5E0CB" stroke-width="2"/>
<circle cx="33.8504" cy="755.944" r="106.85" stroke="#F5E0CB" stroke-width="2"/>
<circle cx="781.803" cy="755.944" r="106.85" stroke="#F5E0CB" stroke-width="2"/>
<circle cx="140.701" cy="755.944" r="106.85" stroke="#F5E0CB" stroke-width="2"/>
<circle cx="888.654" cy="755.944" r="106.85" stroke="#F5E0CB" stroke-width="2"/>
<circle cx="568.102" cy="755.944" r="106.85" stroke="#F5E0CB" stroke-width="2"/>
<circle cx="1316.05" cy="755.944" r="106.85" stroke="#F5E0CB" stroke-width="2"/>
<circle cx="354.402" cy="755.944" r="106.85" stroke="#F5E0CB" stroke-width="2"/>
<circle cx="1102.35" cy="755.944" r="106.85" stroke="#F5E0CB" stroke-width="2"/>
<circle cx="781.803" cy="755.944" r="106.85" stroke="#F5E0CB" stroke-width="2"/>
<circle cx="1529.76" cy="755.944" r="106.85" stroke="#F5E0CB" stroke-width="2"/>
<circle cx="33.8504" cy="756.009" r="106.85" stroke="#F5E0CB" stroke-width="2"/>
<circle cx="461.252" cy="756.009" r="106.85" stroke="#F5E0CB" stroke-width="2"/>
<circle cx="247.551" cy="756.009" r="106.85" stroke="#F5E0CB" stroke-width="2"/>
<circle cx="674.953" cy="756.009" r="106.85" stroke="#F5E0CB" stroke-width="2"/>
<circle cx="33.8504" cy="756.009" r="106.85" stroke="#F5E0CB" stroke-width="2"/>
<circle cx="140.701" cy="756.009" r="106.85" stroke="#F5E0CB" stroke-width="2"/>
<circle cx="568.102" cy="756.009" r="106.85" stroke="#F5E0CB" stroke-width="2"/>
<circle cx="354.402" cy="756.009" r="106.85" stroke="#F5E0CB" stroke-width="2"/>
<circle cx="781.803" cy="756.009" r="106.85" stroke="#F5E0CB" stroke-width="2"/>
<circle cx="194.126" cy="663.476" r="106.85" stroke="#F5E0CB" stroke-width="2"/>
<circle cx="621.528" cy="663.476" r="106.85" stroke="#F5E0CB" stroke-width="2"/>
<circle cx="407.827" cy="663.476" r="106.85" stroke="#F5E0CB" stroke-width="2"/>
<circle cx="835.228" cy="663.476" r="106.85" stroke="#F5E0CB" stroke-width="2"/>
<circle cx="87.2757" cy="663.471" r="106.85" stroke="#F5E0CB" stroke-width="2"/>
<circle cx="514.677" cy="663.471" r="106.85" stroke="#F5E0CB" stroke-width="2"/>
<circle cx="300.976" cy="663.471" r="106.85" stroke="#F5E0CB" stroke-width="2"/>
<circle cx="728.378" cy="663.471" r="106.85" stroke="#F5E0CB" stroke-width="2"/>
<circle cx="781.803" cy="756.009" r="106.85" stroke="#F5E0CB" stroke-width="2"/>
<circle cx="1209.2" cy="756.009" r="106.85" stroke="#F5E0CB" stroke-width="2"/>
<circle cx="995.504" cy="756.009" r="106.85" stroke="#F5E0CB" stroke-width="2"/>
<circle cx="1422.91" cy="756.009" r="106.85" stroke="#F5E0CB" stroke-width="2"/>
<circle cx="781.803" cy="756.009" r="106.85" stroke="#F5E0CB" stroke-width="2"/>
<circle cx="888.654" cy="756.009" r="106.85" stroke="#F5E0CB" stroke-width="2"/>
<circle cx="1316.06" cy="756.009" r="106.85" stroke="#F5E0CB" stroke-width="2"/>
<circle cx="1102.35" cy="756.009" r="106.85" stroke="#F5E0CB" stroke-width="2"/>
<circle cx="1529.76" cy="756.009" r="106.85" stroke="#F5E0CB" stroke-width="2"/>
<circle cx="942.079" cy="663.476" r="106.85" stroke="#F5E0CB" stroke-width="2"/>
<circle cx="1369.48" cy="663.476" r="106.85" stroke="#F5E0CB" stroke-width="2"/>
<circle cx="1155.78" cy="663.476" r="106.85" stroke="#F5E0CB" stroke-width="2"/>
<circle cx="835.229" cy="663.471" r="106.85" stroke="#F5E0CB" stroke-width="2"/>
<circle cx="1262.63" cy="663.471" r="106.85" stroke="#F5E0CB" stroke-width="2"/>
<circle cx="1048.93" cy="663.471" r="106.85" stroke="#F5E0CB" stroke-width="2"/>
<circle cx="1476.33" cy="663.471" r="106.85" stroke="#F5E0CB" stroke-width="2"/>
</svg>
