<svg width="935" height="1024" viewBox="0 0 935 1024" fill="none" xmlns="http://www.w3.org/2000/svg">
<circle cx="909.229" cy="836.612" r="106.85" transform="rotate(-180 909.229 836.612)" stroke="#F5E0CB" stroke-width="2"/>
<circle cx="481.827" cy="836.612" r="106.85" transform="rotate(-180 481.827 836.612)" stroke="#F5E0CB" stroke-width="2"/>
<circle cx="695.528" cy="836.612" r="106.85" transform="rotate(-180 695.528 836.612)" stroke="#F5E0CB" stroke-width="2"/>
<circle cx="1016.08" cy="836.612" r="106.85" transform="rotate(-180 1016.08 836.612)" stroke="#F5E0CB" stroke-width="2"/>
<circle cx="268.126" cy="836.612" r="106.85" transform="rotate(-180 268.126 836.612)" stroke="#F5E0CB" stroke-width="2"/>
<circle cx="909.229" cy="836.612" r="106.85" transform="rotate(-180 909.229 836.612)" stroke="#F5E0CB" stroke-width="2"/>
<circle cx="802.378" cy="836.612" r="106.85" transform="rotate(-180 802.378 836.612)" stroke="#F5E0CB" stroke-width="2"/>
<circle cx="374.977" cy="836.612" r="106.85" transform="rotate(-180 374.977 836.612)" stroke="#F5E0CB" stroke-width="2"/>
<circle cx="588.677" cy="836.612" r="106.85" transform="rotate(-180 588.677 836.612)" stroke="#F5E0CB" stroke-width="2"/>
<circle cx="909.229" cy="836.612" r="106.85" transform="rotate(-180 909.229 836.612)" stroke="#F5E0CB" stroke-width="2"/>
<circle cx="161.276" cy="836.612" r="106.85" transform="rotate(-180 161.276 836.612)" stroke="#F5E0CB" stroke-width="2"/>
<circle cx="855.803" cy="744.074" r="106.85" transform="rotate(-180 855.803 744.074)" stroke="#F5E0CB" stroke-width="2"/>
<circle cx="428.402" cy="744.074" r="106.85" transform="rotate(-180 428.402 744.074)" stroke="#F5E0CB" stroke-width="2"/>
<circle cx="642.103" cy="744.074" r="106.85" transform="rotate(-180 642.103 744.074)" stroke="#F5E0CB" stroke-width="2"/>
<circle cx="962.654" cy="744.074" r="106.85" transform="rotate(-180 962.654 744.074)" stroke="#F5E0CB" stroke-width="2"/>
<circle cx="214.701" cy="744.074" r="106.85" transform="rotate(-180 214.701 744.074)" stroke="#F5E0CB" stroke-width="2"/>
<circle cx="748.953" cy="929.145" r="106.85" transform="rotate(-180 748.953 929.145)" stroke="#F5E0CB" stroke-width="2"/>
<circle cx="321.551" cy="929.145" r="106.85" transform="rotate(-180 321.551 929.145)" stroke="#F5E0CB" stroke-width="2"/>
<circle cx="535.252" cy="929.145" r="106.85" transform="rotate(-180 535.252 929.145)" stroke="#F5E0CB" stroke-width="2"/>
<circle cx="855.803" cy="929.145" r="106.85" transform="rotate(-180 855.803 929.145)" stroke="#F5E0CB" stroke-width="2"/>
<circle cx="107.851" cy="929.145" r="106.85" transform="rotate(-180 107.851 929.145)" stroke="#F5E0CB" stroke-width="2"/>
<circle cx="855.803" cy="929.15" r="106.85" transform="rotate(-180 855.803 929.15)" stroke="#F5E0CB" stroke-width="2"/>
<circle cx="428.402" cy="929.15" r="106.85" transform="rotate(-180 428.402 929.15)" stroke="#F5E0CB" stroke-width="2"/>
<circle cx="642.103" cy="929.15" r="106.85" transform="rotate(-180 642.103 929.15)" stroke="#F5E0CB" stroke-width="2"/>
<circle cx="962.654" cy="929.15" r="106.85" transform="rotate(-180 962.654 929.15)" stroke="#F5E0CB" stroke-width="2"/>
<circle cx="214.701" cy="929.15" r="106.85" transform="rotate(-180 214.701 929.15)" stroke="#F5E0CB" stroke-width="2"/>
<circle cx="748.953" cy="744.079" r="106.85" transform="rotate(-180 748.953 744.079)" stroke="#F5E0CB" stroke-width="2"/>
<circle cx="321.551" cy="744.079" r="106.85" transform="rotate(-180 321.551 744.079)" stroke="#F5E0CB" stroke-width="2"/>
<circle cx="535.252" cy="744.079" r="106.85" transform="rotate(-180 535.252 744.079)" stroke="#F5E0CB" stroke-width="2"/>
<circle cx="855.803" cy="744.079" r="106.85" transform="rotate(-180 855.803 744.079)" stroke="#F5E0CB" stroke-width="2"/>
<circle cx="107.851" cy="744.079" r="106.85" transform="rotate(-180 107.851 744.079)" stroke="#F5E0CB" stroke-width="2"/>
<circle cx="909.229" cy="651.471" r="106.85" transform="rotate(-180 909.229 651.471)" stroke="#F5E0CB" stroke-width="2"/>
<circle cx="481.827" cy="651.471" r="106.85" transform="rotate(-180 481.827 651.471)" stroke="#F5E0CB" stroke-width="2"/>
<circle cx="695.528" cy="651.471" r="106.85" transform="rotate(-180 695.528 651.471)" stroke="#F5E0CB" stroke-width="2"/>
<circle cx="1016.08" cy="651.471" r="106.85" transform="rotate(-180 1016.08 651.471)" stroke="#F5E0CB" stroke-width="2"/>
<circle cx="268.126" cy="651.471" r="106.85" transform="rotate(-180 268.126 651.471)" stroke="#F5E0CB" stroke-width="2"/>
<circle cx="909.229" cy="651.471" r="106.85" transform="rotate(-180 909.229 651.471)" stroke="#F5E0CB" stroke-width="2"/>
<circle cx="802.378" cy="651.471" r="106.85" transform="rotate(-180 802.378 651.471)" stroke="#F5E0CB" stroke-width="2"/>
<circle cx="374.977" cy="651.471" r="106.85" transform="rotate(-180 374.977 651.471)" stroke="#F5E0CB" stroke-width="2"/>
<circle cx="588.677" cy="651.471" r="106.85" transform="rotate(-180 588.677 651.471)" stroke="#F5E0CB" stroke-width="2"/>
<circle cx="909.229" cy="651.471" r="106.85" transform="rotate(-180 909.229 651.471)" stroke="#F5E0CB" stroke-width="2"/>
<circle cx="161.276" cy="651.471" r="106.85" transform="rotate(-180 161.276 651.471)" stroke="#F5E0CB" stroke-width="2"/>
<circle cx="1016.08" cy="651.406" r="106.85" transform="rotate(-180 1016.08 651.406)" stroke="#F5E0CB" stroke-width="2"/>
<circle cx="909.229" cy="651.406" r="106.85" transform="rotate(-180 909.229 651.406)" stroke="#F5E0CB" stroke-width="2"/>
<circle cx="962.654" cy="558.869" r="106.85" transform="rotate(-180 962.654 558.869)" stroke="#F5E0CB" stroke-width="2"/>
<circle cx="855.803" cy="743.94" r="106.85" transform="rotate(-180 855.803 743.94)" stroke="#F5E0CB" stroke-width="2"/>
<circle cx="962.654" cy="743.944" r="106.85" transform="rotate(-180 962.654 743.944)" stroke="#F5E0CB" stroke-width="2"/>
<circle cx="855.803" cy="558.873" r="106.85" transform="rotate(-180 855.803 558.873)" stroke="#F5E0CB" stroke-width="2"/>
<circle cx="1016.08" cy="466.266" r="106.85" transform="rotate(-180 1016.08 466.266)" stroke="#F5E0CB" stroke-width="2"/>
<circle cx="909.229" cy="466.266" r="106.85" transform="rotate(-180 909.229 466.266)" stroke="#F5E0CB" stroke-width="2"/>
<circle cx="909.229" cy="651.406" r="106.85" transform="rotate(-180 909.229 651.406)" stroke="#F5E0CB" stroke-width="2"/>
<circle cx="481.827" cy="651.406" r="106.85" transform="rotate(-180 481.827 651.406)" stroke="#F5E0CB" stroke-width="2"/>
<circle cx="695.528" cy="651.406" r="106.85" transform="rotate(-180 695.528 651.406)" stroke="#F5E0CB" stroke-width="2"/>
<circle cx="268.126" cy="651.406" r="106.85" transform="rotate(-180 268.126 651.406)" stroke="#F5E0CB" stroke-width="2"/>
<circle cx="909.229" cy="651.406" r="106.85" transform="rotate(-180 909.229 651.406)" stroke="#F5E0CB" stroke-width="2"/>
<circle cx="802.378" cy="651.406" r="106.85" transform="rotate(-180 802.378 651.406)" stroke="#F5E0CB" stroke-width="2"/>
<circle cx="374.977" cy="651.406" r="106.85" transform="rotate(-180 374.977 651.406)" stroke="#F5E0CB" stroke-width="2"/>
<circle cx="588.677" cy="651.406" r="106.85" transform="rotate(-180 588.677 651.406)" stroke="#F5E0CB" stroke-width="2"/>
<circle cx="161.276" cy="651.406" r="106.85" transform="rotate(-180 161.276 651.406)" stroke="#F5E0CB" stroke-width="2"/>
<circle cx="855.803" cy="558.869" r="106.85" transform="rotate(-180 855.803 558.869)" stroke="#F5E0CB" stroke-width="2"/>
<circle cx="428.402" cy="558.869" r="106.85" transform="rotate(-180 428.402 558.869)" stroke="#F5E0CB" stroke-width="2"/>
<circle cx="642.103" cy="558.869" r="106.85" transform="rotate(-180 642.103 558.869)" stroke="#F5E0CB" stroke-width="2"/>
<circle cx="214.701" cy="558.869" r="106.85" transform="rotate(-180 214.701 558.869)" stroke="#F5E0CB" stroke-width="2"/>
<circle cx="748.953" cy="743.94" r="106.85" transform="rotate(-180 748.953 743.94)" stroke="#F5E0CB" stroke-width="2"/>
<circle cx="321.551" cy="743.94" r="106.85" transform="rotate(-180 321.551 743.94)" stroke="#F5E0CB" stroke-width="2"/>
<circle cx="535.252" cy="743.94" r="106.85" transform="rotate(-180 535.252 743.94)" stroke="#F5E0CB" stroke-width="2"/>
<circle cx="107.851" cy="743.94" r="106.85" transform="rotate(-180 107.851 743.94)" stroke="#F5E0CB" stroke-width="2"/>
<circle cx="855.803" cy="743.944" r="106.85" transform="rotate(-180 855.803 743.944)" stroke="#F5E0CB" stroke-width="2"/>
<circle cx="428.402" cy="743.944" r="106.85" transform="rotate(-180 428.402 743.944)" stroke="#F5E0CB" stroke-width="2"/>
<circle cx="642.103" cy="743.944" r="106.85" transform="rotate(-180 642.103 743.944)" stroke="#F5E0CB" stroke-width="2"/>
<circle cx="214.701" cy="743.944" r="106.85" transform="rotate(-180 214.701 743.944)" stroke="#F5E0CB" stroke-width="2"/>
<circle cx="748.953" cy="558.873" r="106.85" transform="rotate(-180 748.953 558.873)" stroke="#F5E0CB" stroke-width="2"/>
<circle cx="321.551" cy="558.873" r="106.85" transform="rotate(-180 321.551 558.873)" stroke="#F5E0CB" stroke-width="2"/>
<circle cx="535.252" cy="558.873" r="106.85" transform="rotate(-180 535.252 558.873)" stroke="#F5E0CB" stroke-width="2"/>
<circle cx="107.851" cy="558.873" r="106.85" transform="rotate(-180 107.851 558.873)" stroke="#F5E0CB" stroke-width="2"/>
<circle cx="909.229" cy="466.266" r="106.85" transform="rotate(-180 909.229 466.266)" stroke="#F5E0CB" stroke-width="2"/>
<circle cx="481.827" cy="466.266" r="106.85" transform="rotate(-180 481.827 466.266)" stroke="#F5E0CB" stroke-width="2"/>
<circle cx="695.528" cy="466.266" r="106.85" transform="rotate(-180 695.528 466.266)" stroke="#F5E0CB" stroke-width="2"/>
<circle cx="268.126" cy="466.266" r="106.85" transform="rotate(-180 268.126 466.266)" stroke="#F5E0CB" stroke-width="2"/>
<circle cx="909.229" cy="466.266" r="106.85" transform="rotate(-180 909.229 466.266)" stroke="#F5E0CB" stroke-width="2"/>
<circle cx="802.378" cy="466.266" r="106.85" transform="rotate(-180 802.378 466.266)" stroke="#F5E0CB" stroke-width="2"/>
<circle cx="374.977" cy="466.266" r="106.85" transform="rotate(-180 374.977 466.266)" stroke="#F5E0CB" stroke-width="2"/>
<circle cx="588.677" cy="466.266" r="106.85" transform="rotate(-180 588.677 466.266)" stroke="#F5E0CB" stroke-width="2"/>
<circle cx="161.276" cy="466.266" r="106.85" transform="rotate(-180 161.276 466.266)" stroke="#F5E0CB" stroke-width="2"/>
<circle cx="909.229" cy="466.196" r="106.85" transform="rotate(-180 909.229 466.196)" stroke="#F5E0CB" stroke-width="2"/>
<circle cx="481.827" cy="466.196" r="106.85" transform="rotate(-180 481.827 466.196)" stroke="#F5E0CB" stroke-width="2"/>
<circle cx="695.528" cy="466.196" r="106.85" transform="rotate(-180 695.528 466.196)" stroke="#F5E0CB" stroke-width="2"/>
<circle cx="1016.08" cy="466.196" r="106.85" transform="rotate(-180 1016.08 466.196)" stroke="#F5E0CB" stroke-width="2"/>
<circle cx="268.126" cy="466.196" r="106.85" transform="rotate(-180 268.126 466.196)" stroke="#F5E0CB" stroke-width="2"/>
<circle cx="909.229" cy="466.196" r="106.85" transform="rotate(-180 909.229 466.196)" stroke="#F5E0CB" stroke-width="2"/>
<circle cx="802.378" cy="466.196" r="106.85" transform="rotate(-180 802.378 466.196)" stroke="#F5E0CB" stroke-width="2"/>
<circle cx="374.977" cy="466.196" r="106.85" transform="rotate(-180 374.977 466.196)" stroke="#F5E0CB" stroke-width="2"/>
<circle cx="588.677" cy="466.196" r="106.85" transform="rotate(-180 588.677 466.196)" stroke="#F5E0CB" stroke-width="2"/>
<circle cx="909.229" cy="466.196" r="106.85" transform="rotate(-180 909.229 466.196)" stroke="#F5E0CB" stroke-width="2"/>
<circle cx="161.276" cy="466.196" r="106.85" transform="rotate(-180 161.276 466.196)" stroke="#F5E0CB" stroke-width="2"/>
<circle cx="855.803" cy="373.659" r="106.85" transform="rotate(-180 855.803 373.659)" stroke="#F5E0CB" stroke-width="2"/>
<circle cx="428.402" cy="373.659" r="106.85" transform="rotate(-180 428.402 373.659)" stroke="#F5E0CB" stroke-width="2"/>
<circle cx="642.103" cy="373.659" r="106.85" transform="rotate(-180 642.103 373.659)" stroke="#F5E0CB" stroke-width="2"/>
<circle cx="962.654" cy="373.659" r="106.85" transform="rotate(-180 962.654 373.659)" stroke="#F5E0CB" stroke-width="2"/>
<circle cx="214.701" cy="373.659" r="106.85" transform="rotate(-180 214.701 373.659)" stroke="#F5E0CB" stroke-width="2"/>
<circle cx="748.953" cy="558.73" r="106.85" transform="rotate(-180 748.953 558.73)" stroke="#F5E0CB" stroke-width="2"/>
<circle cx="321.551" cy="558.73" r="106.85" transform="rotate(-180 321.551 558.73)" stroke="#F5E0CB" stroke-width="2"/>
<circle cx="535.252" cy="558.73" r="106.85" transform="rotate(-180 535.252 558.73)" stroke="#F5E0CB" stroke-width="2"/>
<circle cx="855.803" cy="558.73" r="106.85" transform="rotate(-180 855.803 558.73)" stroke="#F5E0CB" stroke-width="2"/>
<circle cx="107.851" cy="558.73" r="106.85" transform="rotate(-180 107.851 558.73)" stroke="#F5E0CB" stroke-width="2"/>
<circle cx="855.803" cy="558.734" r="106.85" transform="rotate(-180 855.803 558.734)" stroke="#F5E0CB" stroke-width="2"/>
<circle cx="428.402" cy="558.734" r="106.85" transform="rotate(-180 428.402 558.734)" stroke="#F5E0CB" stroke-width="2"/>
<circle cx="642.103" cy="558.734" r="106.85" transform="rotate(-180 642.103 558.734)" stroke="#F5E0CB" stroke-width="2"/>
<circle cx="962.654" cy="558.734" r="106.85" transform="rotate(-180 962.654 558.734)" stroke="#F5E0CB" stroke-width="2"/>
<circle cx="214.701" cy="558.734" r="106.85" transform="rotate(-180 214.701 558.734)" stroke="#F5E0CB" stroke-width="2"/>
<circle cx="748.953" cy="373.663" r="106.85" transform="rotate(-180 748.953 373.663)" stroke="#F5E0CB" stroke-width="2"/>
<circle cx="321.551" cy="373.663" r="106.85" transform="rotate(-180 321.551 373.663)" stroke="#F5E0CB" stroke-width="2"/>
<circle cx="535.252" cy="373.663" r="106.85" transform="rotate(-180 535.252 373.663)" stroke="#F5E0CB" stroke-width="2"/>
<circle cx="855.803" cy="373.663" r="106.85" transform="rotate(-180 855.803 373.663)" stroke="#F5E0CB" stroke-width="2"/>
<circle cx="107.851" cy="373.663" r="106.85" transform="rotate(-180 107.851 373.663)" stroke="#F5E0CB" stroke-width="2"/>
<circle cx="909.229" cy="281.056" r="106.85" transform="rotate(-180 909.229 281.056)" stroke="#F5E0CB" stroke-width="2"/>
<circle cx="481.827" cy="281.056" r="106.85" transform="rotate(-180 481.827 281.056)" stroke="#F5E0CB" stroke-width="2"/>
<circle cx="695.528" cy="281.056" r="106.85" transform="rotate(-180 695.528 281.056)" stroke="#F5E0CB" stroke-width="2"/>
<circle cx="1016.08" cy="281.056" r="106.85" transform="rotate(-180 1016.08 281.056)" stroke="#F5E0CB" stroke-width="2"/>
<circle cx="268.126" cy="281.056" r="106.85" transform="rotate(-180 268.126 281.056)" stroke="#F5E0CB" stroke-width="2"/>
<circle cx="909.229" cy="281.056" r="106.85" transform="rotate(-180 909.229 281.056)" stroke="#F5E0CB" stroke-width="2"/>
<circle cx="802.378" cy="281.056" r="106.85" transform="rotate(-180 802.378 281.056)" stroke="#F5E0CB" stroke-width="2"/>
<circle cx="374.977" cy="281.056" r="106.85" transform="rotate(-180 374.977 281.056)" stroke="#F5E0CB" stroke-width="2"/>
<circle cx="588.677" cy="281.056" r="106.85" transform="rotate(-180 588.677 281.056)" stroke="#F5E0CB" stroke-width="2"/>
<circle cx="909.229" cy="281.056" r="106.85" transform="rotate(-180 909.229 281.056)" stroke="#F5E0CB" stroke-width="2"/>
<circle cx="161.276" cy="281.056" r="106.85" transform="rotate(-180 161.276 281.056)" stroke="#F5E0CB" stroke-width="2"/>
<circle cx="1016.08" cy="280.991" r="106.85" transform="rotate(-180 1016.08 280.991)" stroke="#F5E0CB" stroke-width="2"/>
<circle cx="909.229" cy="280.991" r="106.85" transform="rotate(-180 909.229 280.991)" stroke="#F5E0CB" stroke-width="2"/>
<circle cx="962.654" cy="188.453" r="106.85" transform="rotate(-180 962.654 188.453)" stroke="#F5E0CB" stroke-width="2"/>
<circle cx="855.803" cy="373.524" r="106.85" transform="rotate(-180 855.803 373.524)" stroke="#F5E0CB" stroke-width="2"/>
<circle cx="962.654" cy="373.529" r="106.85" transform="rotate(-180 962.654 373.529)" stroke="#F5E0CB" stroke-width="2"/>
<circle cx="855.803" cy="188.458" r="106.85" transform="rotate(-180 855.803 188.458)" stroke="#F5E0CB" stroke-width="2"/>
<circle cx="1016.08" cy="95.8503" r="106.85" transform="rotate(-180 1016.08 95.8503)" stroke="#F5E0CB" stroke-width="2"/>
<circle cx="909.229" cy="95.8503" r="106.85" transform="rotate(-180 909.229 95.8503)" stroke="#F5E0CB" stroke-width="2"/>
<circle cx="909.229" cy="280.991" r="106.85" transform="rotate(-180 909.229 280.991)" stroke="#F5E0CB" stroke-width="2"/>
<circle cx="481.827" cy="280.991" r="106.85" transform="rotate(-180 481.827 280.991)" stroke="#F5E0CB" stroke-width="2"/>
<circle cx="695.528" cy="280.991" r="106.85" transform="rotate(-180 695.528 280.991)" stroke="#F5E0CB" stroke-width="2"/>
<circle cx="268.126" cy="280.991" r="106.85" transform="rotate(-180 268.126 280.991)" stroke="#F5E0CB" stroke-width="2"/>
<circle cx="909.229" cy="280.991" r="106.85" transform="rotate(-180 909.229 280.991)" stroke="#F5E0CB" stroke-width="2"/>
<circle cx="802.378" cy="280.991" r="106.85" transform="rotate(-180 802.378 280.991)" stroke="#F5E0CB" stroke-width="2"/>
<circle cx="374.977" cy="280.991" r="106.85" transform="rotate(-180 374.977 280.991)" stroke="#F5E0CB" stroke-width="2"/>
<circle cx="588.677" cy="280.991" r="106.85" transform="rotate(-180 588.677 280.991)" stroke="#F5E0CB" stroke-width="2"/>
<circle cx="161.276" cy="280.991" r="106.85" transform="rotate(-180 161.276 280.991)" stroke="#F5E0CB" stroke-width="2"/>
<circle cx="855.803" cy="188.453" r="106.85" transform="rotate(-180 855.803 188.453)" stroke="#F5E0CB" stroke-width="2"/>
<circle cx="428.402" cy="188.453" r="106.85" transform="rotate(-180 428.402 188.453)" stroke="#F5E0CB" stroke-width="2"/>
<circle cx="642.103" cy="188.453" r="106.85" transform="rotate(-180 642.103 188.453)" stroke="#F5E0CB" stroke-width="2"/>
<circle cx="214.701" cy="188.453" r="106.85" transform="rotate(-180 214.701 188.453)" stroke="#F5E0CB" stroke-width="2"/>
<circle cx="748.953" cy="373.524" r="106.85" transform="rotate(-180 748.953 373.524)" stroke="#F5E0CB" stroke-width="2"/>
<circle cx="321.551" cy="373.524" r="106.85" transform="rotate(-180 321.551 373.524)" stroke="#F5E0CB" stroke-width="2"/>
<circle cx="535.252" cy="373.524" r="106.85" transform="rotate(-180 535.252 373.524)" stroke="#F5E0CB" stroke-width="2"/>
<circle cx="107.851" cy="373.524" r="106.85" transform="rotate(-180 107.851 373.524)" stroke="#F5E0CB" stroke-width="2"/>
<circle cx="855.803" cy="373.529" r="106.85" transform="rotate(-180 855.803 373.529)" stroke="#F5E0CB" stroke-width="2"/>
<circle cx="428.402" cy="373.529" r="106.85" transform="rotate(-180 428.402 373.529)" stroke="#F5E0CB" stroke-width="2"/>
<circle cx="642.103" cy="373.529" r="106.85" transform="rotate(-180 642.103 373.529)" stroke="#F5E0CB" stroke-width="2"/>
<circle cx="214.701" cy="373.529" r="106.85" transform="rotate(-180 214.701 373.529)" stroke="#F5E0CB" stroke-width="2"/>
<circle cx="748.953" cy="188.458" r="106.85" transform="rotate(-180 748.953 188.458)" stroke="#F5E0CB" stroke-width="2"/>
<circle cx="321.551" cy="188.458" r="106.85" transform="rotate(-180 321.551 188.458)" stroke="#F5E0CB" stroke-width="2"/>
<circle cx="535.252" cy="188.458" r="106.85" transform="rotate(-180 535.252 188.458)" stroke="#F5E0CB" stroke-width="2"/>
<circle cx="107.851" cy="188.458" r="106.85" transform="rotate(-180 107.851 188.458)" stroke="#F5E0CB" stroke-width="2"/>
<circle cx="909.229" cy="95.8503" r="106.85" transform="rotate(-180 909.229 95.8503)" stroke="#F5E0CB" stroke-width="2"/>
<circle cx="481.827" cy="95.8503" r="106.85" transform="rotate(-180 481.827 95.8503)" stroke="#F5E0CB" stroke-width="2"/>
<circle cx="695.528" cy="95.8503" r="106.85" transform="rotate(-180 695.528 95.8503)" stroke="#F5E0CB" stroke-width="2"/>
<circle cx="268.126" cy="95.8503" r="106.85" transform="rotate(-180 268.126 95.8503)" stroke="#F5E0CB" stroke-width="2"/>
<circle cx="909.229" cy="95.8503" r="106.85" transform="rotate(-180 909.229 95.8503)" stroke="#F5E0CB" stroke-width="2"/>
<circle cx="802.378" cy="95.8503" r="106.85" transform="rotate(-180 802.378 95.8503)" stroke="#F5E0CB" stroke-width="2"/>
<circle cx="374.977" cy="95.8503" r="106.85" transform="rotate(-180 374.977 95.8503)" stroke="#F5E0CB" stroke-width="2"/>
<circle cx="588.677" cy="95.8503" r="106.85" transform="rotate(-180 588.677 95.8503)" stroke="#F5E0CB" stroke-width="2"/>
<circle cx="161.276" cy="95.8503" r="106.85" transform="rotate(-180 161.276 95.8503)" stroke="#F5E0CB" stroke-width="2"/>
</svg>
