<svg width="110" height="106" viewBox="0 0 110 106" fill="none" xmlns="http://www.w3.org/2000/svg">
<path d="M64.7352 50.1468C64.7398 67.9497 52.5184 79.4846 35.6521 79.4846C18.7858 79.4846 3 71.9238 3 51.7102C3 31.4966 18.7858 22.0024 35.6521 22.0024C52.5184 22.0024 64.7305 32.3438 64.7352 50.1468Z" stroke="#E9CB9E" stroke-width="6"/>
<path d="M107 53.2668C107 66.7271 97.4422 83.1662 77.1541 83.1662C60.5329 83.1662 45.2646 70.2389 45.2646 53.2668C45.2646 36.2946 60.5329 24.1401 77.1541 24.1401C98.2107 24.1401 107 39.8065 107 53.2668Z" stroke="#E9CB9E" stroke-width="6"/>
<path d="M83.4931 32.3283C83.4931 49.2932 69.1964 61.6698 53.0011 61.6698C36.8058 61.6698 24.8447 49.2932 24.8447 32.3283C24.8447 15.3633 35.0869 4.14854 51.9953 3.06178C68.9038 1.97502 83.4931 15.3633 83.4931 32.3283Z" stroke="#E9CB9E" stroke-width="6"/>
<path d="M83.4896 71.963C83.2453 89.8337 71.4361 103 54.469 103C37.5019 103 24.8447 89.1514 24.8447 72.1631C24.8447 55.1747 37.5019 41.4795 54.469 41.4795C71.4361 41.4795 83.7339 54.0924 83.4896 71.963Z" stroke="#E9CB9E" stroke-width="6"/>
</svg>
