<svg width="104" height="100" viewBox="0 0 104 100" fill="none" xmlns="http://www.w3.org/2000/svg">
<path d="M59.7352 47.1473C59.7374 55.5761 56.8551 62.3781 52.1135 67.0702C47.3673 71.7668 40.6213 74.4846 32.6521 74.4846C24.4751 74.4846 16.7781 72.6456 11.1799 68.5617C5.67442 64.5455 2 58.2203 2 48.7102C2 39.1825 5.69258 32.3362 11.2594 27.8308C16.8815 23.2808 24.5676 21.0024 32.6521 21.0024C40.6814 21.0024 47.4301 23.4598 52.1532 27.8616C56.8577 32.246 59.733 38.7257 59.7352 47.1473Z" stroke="#8D2E2A" stroke-width="4"/>
<path d="M102 50.2668C102 62.9388 93.0459 78.1662 74.1541 78.1662C58.4518 78.1662 44.2646 65.9574 44.2646 50.2668C44.2646 34.641 58.3792 23.1401 74.1541 23.1401C84.1365 23.1401 91.032 26.8298 95.4587 31.9621C99.9292 37.1452 102 43.9413 102 50.2668Z" stroke="#8D2E2A" stroke-width="4"/>
<path d="M78.4931 29.3283C78.4931 45.0572 65.228 56.6698 50.0011 56.6698C34.9834 56.6698 23.8447 45.2631 23.8447 29.3283C23.8447 21.2528 26.2757 14.7235 30.5485 10.0978C34.818 5.47559 41.0927 2.57384 49.1236 2.05766C64.905 1.04334 78.4931 13.5439 78.4931 29.3283Z" stroke="#8D2E2A" stroke-width="4"/>
<path d="M78.4898 68.9357C78.258 85.8907 67.1723 97.9997 51.469 97.9997C35.7092 97.9997 23.8447 85.1525 23.8447 69.1631C23.8447 53.187 35.6966 40.4795 51.469 40.4795C67.2672 40.4795 78.7196 52.1258 78.4898 68.9357Z" stroke="#8D2E2A" stroke-width="4"/>
</svg>
