<svg width="438" height="421" viewBox="0 0 438 421" fill="none" xmlns="http://www.w3.org/2000/svg">
<path d="M257 198.488C257.01 235.254 244.405 265.334 223.293 286.217C202.174 307.108 172.337 319 137.516 319C102.383 319 68.703 311.119 43.888 293.023C19.2122 275.029 3 246.724 3 205.07C3 163.389 19.2395 132.993 44.0073 112.955C68.8581 92.85 102.522 83 137.516 83C172.427 83 202.262 93.6925 223.343 113.332C244.396 132.946 256.99 161.733 257 198.488Z" stroke="#8D2E2A" stroke-width="6"/>
<path d="M435 211.623C435 267.108 395.654 334.5 312.304 334.5C243.68 334.5 181 281.153 181 211.623C181 142.191 243.571 92 312.304 92C355.825 92 386.401 108.149 406.136 131.021C425.936 153.969 435 183.897 435 211.623Z" stroke="#8D2E2A" stroke-width="6"/>
<path d="M336 123.472C336 193.04 277.337 244 210.582 244C144.14 244 95 193.348 95 123.472C95 88.3716 105.589 59.486 124.672 38.8344C143.75 18.1879 171.568 5.50079 206.538 3.25393C276.059 -1.21279 336 53.8215 336 123.472Z" stroke="#8D2E2A" stroke-width="6"/>
<path d="M335.985 290.295C334.975 364.156 286.327 418 216.764 418C147.116 418 95 361.199 95 291.178C95 221.176 147.097 165 216.764 165C286.469 165 336.992 216.652 335.985 290.295Z" stroke="#8D2E2A" stroke-width="6"/>
<path d="M180.295 59.224C178.877 59.224 177.773 58.7173 176.983 57.704C176.205 56.6907 175.815 55.2613 175.815 53.416C175.815 51.5707 176.221 50.1467 177.031 49.144C177.842 48.1307 178.978 47.624 180.439 47.624C181.037 47.624 181.607 47.6987 182.151 47.848C182.695 47.9973 183.138 48.216 183.479 48.504C183.831 48.792 184.007 49.128 184.007 49.512C184.007 49.8427 183.858 50.1307 183.559 50.376C183.261 50.6107 182.85 50.7227 182.327 50.712C182.167 49.1333 181.549 48.344 180.471 48.344C179.671 48.344 179.079 48.7653 178.695 49.608C178.311 50.44 178.119 51.7093 178.119 53.416C178.119 55.1227 178.306 56.3973 178.679 57.24C179.053 58.072 179.634 58.488 180.423 58.488C180.999 58.488 181.469 58.2747 181.831 57.848C182.194 57.4213 182.429 56.7813 182.535 55.928C182.685 55.9067 182.797 55.896 182.871 55.896C183.255 55.896 183.586 55.992 183.863 56.184C184.151 56.376 184.295 56.6373 184.295 56.968C184.295 57.4373 184.103 57.8427 183.719 58.184C183.335 58.5253 182.834 58.7867 182.215 58.968C181.607 59.1387 180.967 59.224 180.295 59.224ZM190.203 59.224C188.709 59.224 187.579 58.7387 186.811 57.768C186.053 56.7973 185.675 55.3467 185.675 53.416C185.675 51.496 186.053 50.0507 186.811 49.08C187.579 48.1093 188.709 47.624 190.203 47.624C191.696 47.624 192.821 48.1093 193.579 49.08C194.347 50.0507 194.731 51.496 194.731 53.416C194.731 55.3467 194.347 56.7973 193.579 57.768C192.821 58.7387 191.696 59.224 190.203 59.224ZM190.203 58.488C190.971 58.488 191.531 58.088 191.883 57.288C192.235 56.4773 192.411 55.1867 192.411 53.416C192.411 51.6453 192.235 50.36 191.883 49.56C191.531 48.7493 190.971 48.344 190.203 48.344C189.435 48.344 188.869 48.7493 188.507 49.56C188.155 50.3707 187.979 51.656 187.979 53.416C187.979 55.176 188.155 56.4613 188.507 57.272C188.869 58.0827 189.435 58.488 190.203 58.488ZM211.194 56.744C211.194 57.5547 211.295 58.2267 211.498 58.76C211.38 58.8773 211.215 58.984 211.002 59.08C210.788 59.176 210.554 59.224 210.298 59.224C209.967 59.224 209.695 59.128 209.482 58.936C209.268 58.744 209.162 58.4827 209.162 58.152L209.146 50.2L206.378 57.688C205.951 57.8373 205.578 57.912 205.258 57.912C204.97 57.912 204.703 57.8587 204.458 57.752C203.935 56.6747 203.402 55.4587 202.858 54.104C202.314 52.7493 201.823 51.4213 201.386 50.12L201.402 56.744C201.402 57.6827 201.503 58.424 201.706 58.968C201.535 59.1387 201.29 59.224 200.97 59.224C200.5 59.224 200.266 58.9467 200.266 58.392V50.072C200.266 49.112 200.228 48.392 200.154 47.912C200.335 47.7307 200.82 47.64 201.61 47.64C201.866 47.64 202.079 47.672 202.25 47.736C202.42 47.8 202.57 47.896 202.698 48.024C204.063 51.608 205.076 54.2427 205.738 55.928C207.039 52.312 207.978 49.6187 208.554 47.848C208.927 47.7093 209.37 47.64 209.882 47.64C210.191 47.64 210.474 47.688 210.73 47.784C210.996 47.8693 211.151 47.9707 211.194 48.088V56.744ZM215.107 59.224C214.755 59.224 214.467 59.128 214.243 58.936C214.019 58.744 213.907 58.4827 213.907 58.152V50.12C213.907 49.3093 213.806 48.6373 213.603 48.104C213.72 47.9867 213.88 47.88 214.083 47.784C214.296 47.688 214.536 47.64 214.803 47.64C215.155 47.64 215.443 47.736 215.667 47.928C215.891 48.12 216.003 48.3813 216.003 48.712V56.744C216.003 57.5867 216.104 58.2587 216.307 58.76C216.19 58.8773 216.024 58.984 215.811 59.08C215.608 59.176 215.374 59.224 215.107 59.224ZM220.815 57.88C221.509 57.8693 222.229 57.7787 222.975 57.608C223.733 57.4373 224.33 57.2347 224.767 57C224.895 57.0853 224.991 57.2293 225.055 57.432C225.13 57.6347 225.167 57.848 225.167 58.072C225.167 58.328 225.119 58.5467 225.023 58.728C224.938 58.9093 224.81 59 224.639 59H219.919C219.567 59 219.279 58.904 219.055 58.712C218.831 58.52 218.719 58.2587 218.719 57.928V50.12C218.719 49.3093 218.618 48.6373 218.415 48.104C218.533 47.9867 218.693 47.88 218.895 47.784C219.109 47.688 219.349 47.64 219.615 47.64C219.967 47.64 220.25 47.736 220.463 47.928C220.687 48.12 220.799 48.3813 220.799 48.712L220.815 57.88ZM235.006 54.088C235.006 55.7947 234.654 57.08 233.95 57.944C233.246 58.7973 232.201 59.224 230.814 59.224C229.449 59.224 228.425 58.808 227.742 57.976C227.07 57.144 226.734 55.848 226.734 54.088V50.12C226.734 49.3093 226.633 48.6373 226.43 48.104C226.547 47.9867 226.707 47.88 226.91 47.784C227.123 47.688 227.363 47.64 227.63 47.64C227.971 47.64 228.254 47.736 228.478 47.928C228.702 48.12 228.814 48.3813 228.814 48.712V54.2C228.814 55.704 228.974 56.7973 229.294 57.48C229.614 58.152 230.121 58.488 230.814 58.488C231.539 58.488 232.073 58.1307 232.414 57.416C232.755 56.7013 232.926 55.6293 232.926 54.2V50.12C232.926 49.3093 232.825 48.6373 232.622 48.104C232.75 47.9867 232.915 47.88 233.118 47.784C233.321 47.688 233.55 47.64 233.806 47.64C234.147 47.64 234.43 47.736 234.654 47.928C234.889 48.12 235.006 48.3813 235.006 48.712V54.088ZM239.564 59.224C238.614 59.224 237.916 59.048 237.468 58.696C237.02 58.3333 236.796 57.8907 236.796 57.368C236.796 56.9947 236.897 56.6747 237.1 56.408C237.302 56.1413 237.601 56.008 237.996 56.008C238.412 56.008 238.705 56.1573 238.876 56.456C238.716 56.776 238.636 57.096 238.636 57.416C238.636 57.7147 238.721 57.9707 238.892 58.184C239.073 58.3867 239.297 58.488 239.564 58.488C240.001 58.488 240.294 58.28 240.444 57.864C240.604 57.4373 240.684 56.8507 240.684 56.104V49.496C240.684 49.2293 240.689 49.0213 240.7 48.872C240.721 48.712 240.758 48.584 240.812 48.488L239.484 48.44C239.27 48.4293 239.084 48.4773 238.924 48.584C238.764 48.68 238.684 48.8453 238.684 49.08C238.684 49.496 238.854 49.8107 239.196 50.024C238.993 50.184 238.71 50.264 238.348 50.264C238.006 50.264 237.708 50.152 237.452 49.928C237.206 49.6933 237.084 49.3733 237.084 48.968C237.084 48.552 237.238 48.2267 237.548 47.992C237.868 47.7467 238.321 47.624 238.908 47.624C239.078 47.624 239.409 47.6347 239.9 47.656C240.188 47.6773 240.636 47.6987 241.244 47.72C241.756 47.72 242.3 47.688 242.876 47.624C242.812 47.9653 242.78 48.3813 242.78 48.872V55.864C242.78 58.104 241.708 59.224 239.564 59.224ZM251.838 57.128C251.966 57.2027 252.062 57.336 252.126 57.528C252.201 57.72 252.238 57.9227 252.238 58.136C252.238 58.3813 252.195 58.5893 252.11 58.76C252.025 58.92 251.897 59 251.726 59H246.638C246.286 59 245.998 58.904 245.774 58.712C245.55 58.52 245.438 58.2587 245.438 57.928V50.392C245.438 49.5813 245.337 48.9093 245.134 48.376C245.39 48.1627 245.646 48.024 245.902 47.96C246.169 47.8853 246.547 47.848 247.038 47.848H251.678C251.795 47.848 251.881 47.9013 251.934 48.008C251.987 48.1147 252.014 48.2533 252.014 48.424C252.014 48.6693 251.961 48.92 251.854 49.176C251.747 49.432 251.614 49.5973 251.454 49.672C250.195 49.16 248.883 48.888 247.518 48.856V52.648H250.99C251.043 52.84 251.07 53.0213 251.07 53.192C251.07 53.3947 251.043 53.592 250.99 53.784H247.534V57.992C248.238 57.9707 249.017 57.8747 249.87 57.704C250.723 57.5227 251.379 57.3307 251.838 57.128ZM257.274 59.24C256.026 59.24 255.082 59.032 254.442 58.616C253.802 58.1893 253.482 57.64 253.482 56.968C253.482 56.6267 253.584 56.3493 253.786 56.136C253.989 55.912 254.32 55.8 254.778 55.8C254.97 55.8 255.125 55.8107 255.242 55.832C255.21 55.9707 255.194 56.1147 255.194 56.264C255.194 56.3707 255.205 56.4987 255.226 56.648C255.301 57.16 255.536 57.592 255.93 57.944C256.325 58.296 256.874 58.472 257.578 58.472C258.101 58.472 258.533 58.3333 258.874 58.056C259.216 57.768 259.386 57.352 259.386 56.808C259.386 56.296 259.216 55.8693 258.874 55.528C258.544 55.176 257.968 54.7707 257.146 54.312C256.368 53.864 255.754 53.4747 255.306 53.144C254.858 52.8027 254.506 52.4187 254.25 51.992C254.005 51.5547 253.882 51.0427 253.882 50.456C253.882 49.496 254.234 48.7867 254.938 48.328C255.653 47.8587 256.56 47.624 257.658 47.624C258.682 47.624 259.504 47.784 260.122 48.104C260.741 48.424 261.05 48.888 261.05 49.496C261.05 49.784 260.965 50.0187 260.794 50.2C260.634 50.3707 260.362 50.4613 259.978 50.472C259.936 50.4827 259.861 50.488 259.754 50.488C259.658 50.488 259.536 50.4773 259.386 50.456C259.408 50.104 259.365 49.7947 259.258 49.528C259.173 49.176 258.976 48.8933 258.666 48.68C258.357 48.456 257.941 48.344 257.418 48.344C256.992 48.344 256.618 48.4507 256.298 48.664C255.989 48.8773 255.834 49.2293 255.834 49.72C255.834 50.0613 255.909 50.3653 256.058 50.632C256.208 50.8987 256.458 51.1653 256.81 51.432C257.162 51.6987 257.664 52.0133 258.314 52.376C258.954 52.728 259.488 53.064 259.914 53.384C260.341 53.6933 260.698 54.072 260.986 54.52C261.274 54.968 261.418 55.4907 261.418 56.088C261.418 56.6747 261.264 57.208 260.954 57.688C260.656 58.1573 260.192 58.536 259.562 58.824C258.944 59.1013 258.181 59.24 257.274 59.24ZM258.042 46.984C257.936 47.0373 257.77 47.064 257.546 47.064C257.28 47.064 257.093 47.0373 256.986 46.984L254.794 44.888C254.805 44.8347 254.853 44.7547 254.938 44.648C255.024 44.5413 255.098 44.472 255.162 44.44L257.53 45.704L259.866 44.44C259.93 44.472 260.005 44.5413 260.09 44.648C260.186 44.7547 260.24 44.8347 260.25 44.888L258.042 46.984Z" fill="#8D2E2A"/>
<path d="M161.666 353.72C161.986 353.837 162.237 354.035 162.418 354.312C162.61 354.589 162.706 354.909 162.706 355.272C162.706 355.816 162.498 356.248 162.082 356.568C161.666 356.888 161.047 357.043 160.226 357.032L156.082 356.92C155.751 356.909 155.485 356.915 155.282 356.936C155.09 356.957 154.855 357.016 154.578 357.112L154.306 356.6C154.306 356.227 154.338 355.923 154.402 355.688C154.477 355.443 154.615 355.192 154.818 354.936L160.386 347.432L157.17 347.656C156.871 347.677 156.61 347.736 156.386 347.832C156.162 347.928 156.002 348.067 155.906 348.248C155.81 348.451 155.762 348.632 155.762 348.792C155.762 348.931 155.794 349.064 155.858 349.192C155.463 349.117 155.143 348.989 154.898 348.808C154.706 348.701 154.546 348.536 154.418 348.312C154.301 348.088 154.242 347.848 154.242 347.592C154.242 347.037 154.471 346.595 154.93 346.264C155.389 345.923 156.077 345.768 156.994 345.8L160.194 345.896C161.026 345.917 161.645 345.864 162.05 345.736L162.322 346.344C162.322 346.707 162.285 347.005 162.21 347.24C162.146 347.475 162.007 347.725 161.794 347.992L156.146 355.4L159.682 355.16C160.045 355.149 160.343 355.08 160.578 354.952C160.813 354.824 160.973 354.669 161.058 354.488C161.165 354.307 161.218 354.125 161.218 353.944C161.218 353.848 161.197 353.725 161.154 353.576C161.303 353.597 161.421 353.624 161.506 353.656C161.591 353.688 161.645 353.709 161.666 353.72ZM172.478 355.752C172.606 356.189 172.777 356.52 172.99 356.744C172.713 357.064 172.302 357.224 171.758 357.224C171.427 357.224 171.145 357.155 170.91 357.016C170.686 356.877 170.547 356.675 170.494 356.408L169.774 353.72H166.158L165.63 355.784C165.555 356.061 165.518 356.296 165.518 356.488C165.518 356.712 165.577 356.883 165.694 357C165.491 357.075 165.305 357.128 165.134 357.16C164.974 357.203 164.777 357.224 164.542 357.224C164.137 357.224 163.838 357.155 163.646 357.016C163.465 356.877 163.374 356.653 163.374 356.344C163.374 356.088 163.443 355.725 163.582 355.256L166.734 345.896C167.321 345.704 167.907 345.608 168.494 345.608C169.134 345.608 169.513 345.837 169.63 346.296L172.478 355.752ZM169.47 352.584L167.934 346.856L166.446 352.584H169.47ZM181.741 357.224C180.322 357.224 179.218 356.717 178.429 355.704C177.65 354.691 177.261 353.261 177.261 351.416C177.261 349.571 177.666 348.147 178.477 347.144C179.287 346.131 180.423 345.624 181.885 345.624C182.482 345.624 183.053 345.699 183.597 345.848C184.141 345.997 184.583 346.216 184.925 346.504C185.277 346.792 185.453 347.128 185.453 347.512C185.453 347.843 185.303 348.131 185.005 348.376C184.706 348.611 184.295 348.723 183.773 348.712C183.613 347.133 182.994 346.344 181.917 346.344C181.117 346.344 180.525 346.765 180.141 347.608C179.757 348.44 179.565 349.709 179.565 351.416C179.565 353.123 179.751 354.397 180.125 355.24C180.498 356.072 181.079 356.488 181.869 356.488C182.445 356.488 182.914 356.275 183.277 355.848C183.639 355.421 183.874 354.781 183.981 353.928C184.13 353.907 184.242 353.896 184.317 353.896C184.701 353.896 185.031 353.992 185.309 354.184C185.597 354.376 185.741 354.637 185.741 354.968C185.741 355.437 185.549 355.843 185.165 356.184C184.781 356.525 184.279 356.787 183.661 356.968C183.053 357.139 182.413 357.224 181.741 357.224ZM191.648 357.224C190.155 357.224 189.024 356.739 188.256 355.768C187.499 354.797 187.12 353.347 187.12 351.416C187.12 349.496 187.499 348.051 188.256 347.08C189.024 346.109 190.155 345.624 191.648 345.624C193.141 345.624 194.267 346.109 195.024 347.08C195.792 348.051 196.176 349.496 196.176 351.416C196.176 353.347 195.792 354.797 195.024 355.768C194.267 356.739 193.141 357.224 191.648 357.224ZM191.648 356.488C192.416 356.488 192.976 356.088 193.328 355.288C193.68 354.477 193.856 353.187 193.856 351.416C193.856 349.645 193.68 348.36 193.328 347.56C192.976 346.749 192.416 346.344 191.648 346.344C190.88 346.344 190.315 346.749 189.952 347.56C189.6 348.371 189.424 349.656 189.424 351.416C189.424 353.176 189.6 354.461 189.952 355.272C190.315 356.083 190.88 356.488 191.648 356.488ZM202.879 357C202.505 357 202.207 356.904 201.983 356.712C201.769 356.52 201.663 356.264 201.663 355.944L201.647 348.12V347.544C201.647 346.755 201.577 346.179 201.439 345.816C202.111 345.731 203.295 345.688 204.991 345.688C206.612 345.688 207.855 346.163 208.719 347.112C209.593 348.051 210.031 349.437 210.031 351.272C210.031 355.091 208.388 357 205.103 357H202.879ZM204.991 356.264C205.631 356.264 206.148 356.104 206.543 355.784C206.948 355.464 207.247 354.952 207.439 354.248C207.631 353.533 207.727 352.589 207.727 351.416C207.727 349.688 207.503 348.424 207.055 347.624C206.617 346.824 205.929 346.424 204.991 346.424H203.759V356.264H204.991ZM216.132 357.224C214.639 357.224 213.508 356.739 212.74 355.768C211.983 354.797 211.604 353.347 211.604 351.416C211.604 349.496 211.983 348.051 212.74 347.08C213.508 346.109 214.639 345.624 216.132 345.624C217.626 345.624 218.751 346.109 219.508 347.08C220.276 348.051 220.66 349.496 220.66 351.416C220.66 353.347 220.276 354.797 219.508 355.768C218.751 356.739 217.626 357.224 216.132 357.224ZM216.132 356.488C216.9 356.488 217.46 356.088 217.812 355.288C218.164 354.477 218.34 353.187 218.34 351.416C218.34 349.645 218.164 348.36 217.812 347.56C217.46 346.749 216.9 346.344 216.132 346.344C215.364 346.344 214.799 346.749 214.436 347.56C214.084 348.371 213.908 349.656 213.908 351.416C213.908 353.176 214.084 354.461 214.436 355.272C214.799 356.083 215.364 356.488 216.132 356.488ZM225.813 357.24C224.565 357.24 223.621 357.032 222.981 356.616C222.341 356.189 222.021 355.64 222.021 354.968C222.021 354.627 222.123 354.349 222.325 354.136C222.528 353.912 222.859 353.8 223.317 353.8C223.509 353.8 223.664 353.811 223.781 353.832C223.749 353.971 223.733 354.115 223.733 354.264C223.733 354.371 223.744 354.499 223.765 354.648C223.84 355.16 224.075 355.592 224.469 355.944C224.864 356.296 225.413 356.472 226.117 356.472C226.64 356.472 227.072 356.333 227.413 356.056C227.755 355.768 227.925 355.352 227.925 354.808C227.925 354.296 227.755 353.869 227.413 353.528C227.083 353.176 226.507 352.771 225.685 352.312C224.907 351.864 224.293 351.475 223.845 351.144C223.397 350.803 223.045 350.419 222.789 349.992C222.544 349.555 222.421 349.043 222.421 348.456C222.421 347.496 222.773 346.787 223.477 346.328C224.192 345.859 225.099 345.624 226.197 345.624C227.221 345.624 228.043 345.784 228.661 346.104C229.28 346.424 229.589 346.888 229.589 347.496C229.589 347.784 229.504 348.019 229.333 348.2C229.173 348.371 228.901 348.461 228.517 348.472C228.475 348.483 228.4 348.488 228.293 348.488C228.197 348.488 228.075 348.477 227.925 348.456C227.947 348.104 227.904 347.795 227.797 347.528C227.712 347.176 227.515 346.893 227.205 346.68C226.896 346.456 226.48 346.344 225.957 346.344C225.531 346.344 225.157 346.451 224.837 346.664C224.528 346.877 224.373 347.229 224.373 347.72C224.373 348.061 224.448 348.365 224.597 348.632C224.747 348.899 224.997 349.165 225.349 349.432C225.701 349.699 226.203 350.013 226.853 350.376C227.493 350.728 228.027 351.064 228.453 351.384C228.88 351.693 229.237 352.072 229.525 352.52C229.813 352.968 229.957 353.491 229.957 354.088C229.957 354.675 229.803 355.208 229.493 355.688C229.195 356.157 228.731 356.536 228.101 356.824C227.483 357.101 226.72 357.24 225.813 357.24ZM238.828 345.848C238.934 345.848 239.014 345.901 239.068 346.008C239.132 346.115 239.164 346.253 239.164 346.424C239.164 346.669 239.11 346.92 239.004 347.176C238.897 347.432 238.758 347.597 238.588 347.672C237.585 347.181 236.716 346.856 235.98 346.696L235.996 354.744C235.996 355.587 236.097 356.259 236.3 356.76C236.172 356.877 236.001 356.984 235.788 357.08C235.585 357.176 235.35 357.224 235.084 357.224C234.732 357.224 234.444 357.128 234.22 356.936C233.996 356.744 233.884 356.483 233.884 356.152V346.696C233.19 346.845 232.321 347.171 231.276 347.672C231.116 347.597 230.982 347.432 230.876 347.176C230.769 346.92 230.716 346.669 230.716 346.424C230.716 346.253 230.742 346.115 230.796 346.008C230.849 345.901 230.934 345.848 231.052 345.848H238.828ZM248.744 355.752C248.872 356.189 249.042 356.52 249.256 356.744C248.978 357.064 248.568 357.224 248.024 357.224C247.693 357.224 247.41 357.155 247.176 357.016C246.952 356.877 246.813 356.675 246.76 356.408L246.04 353.72H242.424L241.896 355.784C241.821 356.061 241.784 356.296 241.784 356.488C241.784 356.712 241.842 356.883 241.96 357C241.757 357.075 241.57 357.128 241.4 357.16C241.24 357.203 241.042 357.224 240.808 357.224C240.402 357.224 240.104 357.155 239.912 357.016C239.73 356.877 239.64 356.653 239.64 356.344C239.64 356.088 239.709 355.725 239.848 355.256L243 345.896C243.586 345.704 244.173 345.608 244.76 345.608C245.4 345.608 245.778 345.837 245.896 346.296L248.744 355.752ZM245.736 352.584L244.2 346.856L242.712 352.584H245.736ZM251.24 357.224C250.91 357.224 250.622 357.133 250.376 356.952C250.579 356.408 250.68 355.672 250.68 354.744V348.12C250.68 347.235 250.643 346.499 250.568 345.912C250.632 345.827 250.755 345.763 250.936 345.72C251.128 345.677 251.326 345.656 251.528 345.656C251.795 345.656 251.96 345.688 252.024 345.752C252.291 346.136 253.054 347.165 254.312 348.84C255.454 350.365 256.307 351.528 256.872 352.328C257.448 353.128 257.854 353.784 258.088 354.296L257.56 347.112L257.544 346.888C257.544 346.536 257.624 346.253 257.784 346.04C257.955 345.827 258.2 345.704 258.52 345.672C258.862 345.651 259.15 345.72 259.384 345.88C259.246 346.296 259.176 346.952 259.176 347.848L259.16 354.776C259.16 355.725 259.192 356.451 259.256 356.952C259.182 357.027 259.054 357.085 258.872 357.128C258.702 357.181 258.52 357.208 258.328 357.208C258.104 357.208 257.944 357.181 257.848 357.128C254.979 353.768 252.974 351.021 251.832 348.888L252.28 356.024C252.312 356.365 252.216 356.653 251.992 356.888C251.768 357.112 251.518 357.224 251.24 357.224ZM268.283 355.128C268.411 355.203 268.507 355.336 268.571 355.528C268.646 355.72 268.683 355.923 268.683 356.136C268.683 356.381 268.641 356.589 268.555 356.76C268.47 356.92 268.342 357 268.171 357H263.083C262.731 357 262.443 356.904 262.219 356.712C261.995 356.52 261.883 356.259 261.883 355.928V348.392C261.883 347.581 261.782 346.909 261.579 346.376C261.835 346.163 262.091 346.024 262.347 345.96C262.614 345.885 262.993 345.848 263.483 345.848H268.123C268.241 345.848 268.326 345.901 268.379 346.008C268.433 346.115 268.459 346.253 268.459 346.424C268.459 346.669 268.406 346.92 268.299 347.176C268.193 347.432 268.059 347.597 267.899 347.672C266.641 347.16 265.329 346.888 263.963 346.856V350.648H267.435C267.489 350.84 267.515 351.021 267.515 351.192C267.515 351.395 267.489 351.592 267.435 351.784H263.979V355.992C264.683 355.971 265.462 355.875 266.315 355.704C267.169 355.523 267.825 355.331 268.283 355.128ZM273.72 357.24C272.472 357.24 271.528 357.032 270.888 356.616C270.248 356.189 269.928 355.64 269.928 354.968C269.928 354.627 270.029 354.349 270.232 354.136C270.434 353.912 270.765 353.8 271.224 353.8C271.416 353.8 271.57 353.811 271.688 353.832C271.656 353.971 271.64 354.115 271.64 354.264C271.64 354.371 271.65 354.499 271.672 354.648C271.746 355.16 271.981 355.592 272.376 355.944C272.77 356.296 273.32 356.472 274.024 356.472C274.546 356.472 274.978 356.333 275.32 356.056C275.661 355.768 275.832 355.352 275.832 354.808C275.832 354.296 275.661 353.869 275.32 353.528C274.989 353.176 274.413 352.771 273.592 352.312C272.813 351.864 272.2 351.475 271.752 351.144C271.304 350.803 270.952 350.419 270.696 349.992C270.45 349.555 270.328 349.043 270.328 348.456C270.328 347.496 270.68 346.787 271.384 346.328C272.098 345.859 273.005 345.624 274.104 345.624C275.128 345.624 275.949 345.784 276.568 346.104C277.186 346.424 277.496 346.888 277.496 347.496C277.496 347.784 277.41 348.019 277.24 348.2C277.08 348.371 276.808 348.461 276.424 348.472C276.381 348.483 276.306 348.488 276.2 348.488C276.104 348.488 275.981 348.477 275.832 348.456C275.853 348.104 275.81 347.795 275.704 347.528C275.618 347.176 275.421 346.893 275.112 346.68C274.802 346.456 274.386 346.344 273.864 346.344C273.437 346.344 273.064 346.451 272.744 346.664C272.434 346.877 272.28 347.229 272.28 347.72C272.28 348.061 272.354 348.365 272.504 348.632C272.653 348.899 272.904 349.165 273.256 349.432C273.608 349.699 274.109 350.013 274.76 350.376C275.4 350.728 275.933 351.064 276.36 351.384C276.786 351.693 277.144 352.072 277.432 352.52C277.72 352.968 277.864 353.491 277.864 354.088C277.864 354.675 277.709 355.208 277.4 355.688C277.101 356.157 276.637 356.536 276.008 356.824C275.389 357.101 274.626 357.24 273.72 357.24ZM274.488 344.984C274.381 345.037 274.216 345.064 273.992 345.064C273.725 345.064 273.538 345.037 273.432 344.984L271.24 342.888C271.25 342.835 271.298 342.755 271.384 342.648C271.469 342.541 271.544 342.472 271.608 342.44L273.976 343.704L276.312 342.44C276.376 342.472 276.45 342.541 276.536 342.648C276.632 342.755 276.685 342.835 276.696 342.888L274.488 344.984ZM180.416 379.72C180.736 379.837 180.987 380.035 181.168 380.312C181.36 380.589 181.456 380.909 181.456 381.272C181.456 381.816 181.248 382.248 180.832 382.568C180.416 382.888 179.797 383.043 178.976 383.032L174.832 382.92C174.501 382.909 174.235 382.915 174.032 382.936C173.84 382.957 173.605 383.016 173.328 383.112L173.056 382.6C173.056 382.227 173.088 381.923 173.152 381.688C173.227 381.443 173.365 381.192 173.568 380.936L179.136 373.432L175.92 373.656C175.621 373.677 175.36 373.736 175.136 373.832C174.912 373.928 174.752 374.067 174.656 374.248C174.56 374.451 174.512 374.632 174.512 374.792C174.512 374.931 174.544 375.064 174.608 375.192C174.213 375.117 173.893 374.989 173.648 374.808C173.456 374.701 173.296 374.536 173.168 374.312C173.051 374.088 172.992 373.848 172.992 373.592C172.992 373.037 173.221 372.595 173.68 372.264C174.139 371.923 174.827 371.768 175.744 371.8L178.944 371.896C179.776 371.917 180.395 371.864 180.8 371.736L181.072 372.344C181.072 372.707 181.035 373.005 180.96 373.24C180.896 373.475 180.757 373.725 180.544 373.992L174.896 381.4L178.432 381.16C178.795 381.149 179.093 381.08 179.328 380.952C179.563 380.824 179.723 380.669 179.808 380.488C179.915 380.307 179.968 380.125 179.968 379.944C179.968 379.848 179.947 379.725 179.904 379.576C180.053 379.597 180.171 379.624 180.256 379.656C180.341 379.688 180.395 379.709 180.416 379.72ZM191.228 381.752C191.356 382.189 191.527 382.52 191.74 382.744C191.463 383.064 191.052 383.224 190.508 383.224C190.177 383.224 189.895 383.155 189.66 383.016C189.436 382.877 189.297 382.675 189.244 382.408L188.524 379.72H184.908L184.38 381.784C184.305 382.061 184.268 382.296 184.268 382.488C184.268 382.712 184.327 382.883 184.444 383C184.241 383.075 184.055 383.128 183.884 383.16C183.724 383.203 183.527 383.224 183.292 383.224C182.887 383.224 182.588 383.155 182.396 383.016C182.215 382.877 182.124 382.653 182.124 382.344C182.124 382.088 182.193 381.725 182.332 381.256L185.484 371.896C186.071 371.704 186.657 371.608 187.244 371.608C187.884 371.608 188.263 371.837 188.38 372.296L191.228 381.752ZM188.22 378.584L186.684 372.856L185.196 378.584H188.22ZM195.725 371.624C197.325 371.624 198.53 371.891 199.341 372.424C200.162 372.947 200.573 373.779 200.573 374.92C200.573 376.125 200.146 377.053 199.293 377.704C198.45 378.344 197.234 378.664 195.645 378.664H195.261V380.856C195.261 381.656 195.362 382.291 195.565 382.76C195.447 382.877 195.282 382.984 195.069 383.08C194.866 383.176 194.631 383.224 194.365 383.224C194.013 383.224 193.725 383.128 193.501 382.936C193.277 382.744 193.165 382.483 193.165 382.152V374.12C193.165 373.309 193.063 372.637 192.861 372.104C193.522 371.784 194.477 371.624 195.725 371.624ZM195.549 377.944C196.519 377.944 197.213 377.693 197.629 377.192C198.055 376.691 198.269 375.987 198.269 375.08C198.269 373.267 197.437 372.36 195.773 372.36C195.527 372.36 195.357 372.365 195.261 372.376V377.944H195.549ZM204.573 381.88C205.267 381.869 205.987 381.779 206.733 381.608C207.491 381.437 208.088 381.235 208.525 381C208.653 381.085 208.749 381.229 208.813 381.432C208.888 381.635 208.925 381.848 208.925 382.072C208.925 382.328 208.877 382.547 208.781 382.728C208.696 382.909 208.568 383 208.397 383H203.677C203.325 383 203.037 382.904 202.813 382.712C202.589 382.52 202.477 382.259 202.477 381.928V374.12C202.477 373.309 202.376 372.637 202.173 372.104C202.291 371.987 202.451 371.88 202.653 371.784C202.867 371.688 203.107 371.64 203.373 371.64C203.725 371.64 204.008 371.736 204.221 371.928C204.445 372.12 204.557 372.381 204.557 372.712L204.573 381.88ZM218.572 381.752C218.7 382.189 218.87 382.52 219.084 382.744C218.806 383.064 218.396 383.224 217.852 383.224C217.521 383.224 217.238 383.155 217.004 383.016C216.78 382.877 216.641 382.675 216.588 382.408L215.868 379.72H212.252L211.724 381.784C211.649 382.061 211.612 382.296 211.612 382.488C211.612 382.712 211.67 382.883 211.788 383C211.585 383.075 211.398 383.128 211.228 383.16C211.068 383.203 210.87 383.224 210.636 383.224C210.23 383.224 209.932 383.155 209.74 383.016C209.558 382.877 209.468 382.653 209.468 382.344C209.468 382.088 209.537 381.725 209.676 381.256L212.828 371.896C213.414 371.704 214.001 371.608 214.588 371.608C215.228 371.608 215.606 371.837 215.724 372.296L218.572 381.752ZM215.564 378.584L214.028 372.856L212.54 378.584H215.564ZM224.412 383.224C222.994 383.224 221.89 382.717 221.1 381.704C220.322 380.691 219.932 379.261 219.932 377.416C219.932 375.571 220.338 374.147 221.148 373.144C221.959 372.131 223.095 371.624 224.556 371.624C225.154 371.624 225.724 371.699 226.268 371.848C226.812 371.997 227.255 372.216 227.596 372.504C227.948 372.792 228.124 373.128 228.124 373.512C228.124 373.843 227.975 374.131 227.676 374.376C227.378 374.611 226.967 374.723 226.444 374.712C226.284 373.133 225.666 372.344 224.588 372.344C223.788 372.344 223.196 372.765 222.812 373.608C222.428 374.44 222.236 375.709 222.236 377.416C222.236 379.123 222.423 380.397 222.796 381.24C223.17 382.072 223.751 382.488 224.54 382.488C225.116 382.488 225.586 382.275 225.948 381.848C226.311 381.421 226.546 380.781 226.652 379.928C226.802 379.907 226.914 379.896 226.988 379.896C227.372 379.896 227.703 379.992 227.98 380.184C228.268 380.376 228.412 380.637 228.412 380.968C228.412 381.437 228.22 381.843 227.836 382.184C227.452 382.525 226.951 382.787 226.332 382.968C225.724 383.139 225.084 383.224 224.412 383.224ZM236.768 381.128C236.896 381.203 236.992 381.336 237.056 381.528C237.13 381.72 237.168 381.923 237.168 382.136C237.168 382.381 237.125 382.589 237.04 382.76C236.954 382.92 236.826 383 236.656 383H231.568C231.216 383 230.928 382.904 230.704 382.712C230.48 382.52 230.368 382.259 230.368 381.928V374.392C230.368 373.581 230.266 372.909 230.064 372.376C230.32 372.163 230.576 372.024 230.832 371.96C231.098 371.885 231.477 371.848 231.968 371.848H236.608C236.725 371.848 236.81 371.901 236.864 372.008C236.917 372.115 236.944 372.253 236.944 372.424C236.944 372.669 236.89 372.92 236.784 373.176C236.677 373.432 236.544 373.597 236.384 373.672C235.125 373.16 233.813 372.888 232.448 372.856V376.648H235.92C235.973 376.84 236 377.021 236 377.192C236 377.395 235.973 377.592 235.92 377.784H232.464V381.992C233.168 381.971 233.946 381.875 234.8 381.704C235.653 381.523 236.309 381.331 236.768 381.128ZM239.756 383.224C239.425 383.224 239.137 383.133 238.892 382.952C239.095 382.408 239.196 381.672 239.196 380.744V374.12C239.196 373.235 239.159 372.499 239.084 371.912C239.148 371.827 239.271 371.763 239.452 371.72C239.644 371.677 239.841 371.656 240.044 371.656C240.311 371.656 240.476 371.688 240.54 371.752C240.807 372.136 241.569 373.165 242.828 374.84C243.969 376.365 244.823 377.528 245.388 378.328C245.964 379.128 246.369 379.784 246.604 380.296L246.076 373.112L246.06 372.888C246.06 372.536 246.14 372.253 246.3 372.04C246.471 371.827 246.716 371.704 247.036 371.672C247.377 371.651 247.665 371.72 247.9 371.88C247.761 372.296 247.692 372.952 247.692 373.848L247.676 380.776C247.676 381.725 247.708 382.451 247.772 382.952C247.697 383.027 247.569 383.085 247.388 383.128C247.217 383.181 247.036 383.208 246.844 383.208C246.62 383.208 246.46 383.181 246.364 383.128C243.495 379.768 241.489 377.021 240.348 374.888L240.796 382.024C240.828 382.365 240.732 382.653 240.508 382.888C240.284 383.112 240.033 383.224 239.756 383.224ZM254.351 383.224C252.858 383.224 251.727 382.739 250.959 381.768C250.202 380.797 249.823 379.347 249.823 377.416C249.823 375.496 250.202 374.051 250.959 373.08C251.727 372.109 252.858 371.624 254.351 371.624C255.844 371.624 256.97 372.109 257.727 373.08C258.495 374.051 258.879 375.496 258.879 377.416C258.879 379.347 258.495 380.797 257.727 381.768C256.97 382.739 255.844 383.224 254.351 383.224ZM254.351 382.488C255.119 382.488 255.679 382.088 256.031 381.288C256.383 380.477 256.559 379.187 256.559 377.416C256.559 375.645 256.383 374.36 256.031 373.56C255.679 372.749 255.119 372.344 254.351 372.344C253.583 372.344 253.018 372.749 252.655 373.56C252.303 374.371 252.127 375.656 252.127 377.416C252.127 379.176 252.303 380.461 252.655 381.272C253.018 382.083 253.583 382.488 254.351 382.488Z" fill="#8D2E2A"/>
<path d="M45.5373 183.624C45.9533 183.624 46.2519 183.693 46.4333 183.832C46.6253 183.971 46.7213 184.189 46.7213 184.488C46.7213 184.776 46.6466 185.133 46.4973 185.56L43.4253 194.936C42.9453 195.128 42.4759 195.224 42.0173 195.224C41.6439 195.224 41.3506 195.176 41.1373 195.08C40.9239 194.995 40.7853 194.851 40.7213 194.648L37.8573 185.08C37.7293 184.632 37.5586 184.296 37.3453 184.072C37.6226 183.773 38.0386 183.624 38.5933 183.624C39.3506 183.624 39.7986 183.891 39.9373 184.424L42.3053 193.704L44.4493 185.048C44.5239 184.771 44.5613 184.536 44.5613 184.344C44.5613 184.141 44.5133 183.971 44.4173 183.832C44.7479 183.693 45.1213 183.624 45.5373 183.624ZM55.6859 195.224C54.2672 195.224 53.1632 194.717 52.3739 193.704C51.5952 192.691 51.2059 191.261 51.2059 189.416C51.2059 187.571 51.6112 186.147 52.4219 185.144C53.2325 184.131 54.3685 183.624 55.8299 183.624C56.4272 183.624 56.9979 183.699 57.5419 183.848C58.0859 183.997 58.5285 184.216 58.8699 184.504C59.2219 184.792 59.3979 185.128 59.3979 185.512C59.3979 185.843 59.2485 186.131 58.9499 186.376C58.6512 186.611 58.2405 186.723 57.7179 186.712C57.5579 185.133 56.9392 184.344 55.8619 184.344C55.0619 184.344 54.4699 184.765 54.0859 185.608C53.7019 186.44 53.5099 187.709 53.5099 189.416C53.5099 191.123 53.6965 192.397 54.0699 193.24C54.4432 194.072 55.0245 194.488 55.8139 194.488C56.3899 194.488 56.8592 194.275 57.2219 193.848C57.5845 193.421 57.8192 192.781 57.9259 191.928C58.0752 191.907 58.1872 191.896 58.2619 191.896C58.6459 191.896 58.9765 191.992 59.2539 192.184C59.5419 192.376 59.6859 192.637 59.6859 192.968C59.6859 193.437 59.4939 193.843 59.1099 194.184C58.7259 194.525 58.2245 194.787 57.6059 194.968C56.9979 195.139 56.3579 195.224 55.6859 195.224ZM56.3259 182.984C56.2192 183.037 56.0539 183.064 55.8299 183.064C55.5632 183.064 55.3765 183.037 55.2699 182.984L53.0779 180.888C53.0885 180.835 53.1365 180.755 53.2219 180.648C53.3072 180.541 53.3819 180.472 53.4459 180.44L55.8139 181.704L58.1499 180.44C58.2139 180.472 58.2885 180.541 58.3739 180.648C58.4699 180.755 58.5232 180.835 58.5339 180.888L56.3259 182.984ZM68.0413 193.128C68.1693 193.203 68.2653 193.336 68.3293 193.528C68.4039 193.72 68.4413 193.923 68.4413 194.136C68.4413 194.381 68.3986 194.589 68.3133 194.76C68.2279 194.92 68.0999 195 67.9293 195H62.8413C62.4893 195 62.2013 194.904 61.9773 194.712C61.7533 194.52 61.6413 194.259 61.6413 193.928V186.392C61.6413 185.581 61.5399 184.909 61.3372 184.376C61.5933 184.163 61.8493 184.024 62.1053 183.96C62.3719 183.885 62.7506 183.848 63.2413 183.848H67.8813C67.9986 183.848 68.0839 183.901 68.1373 184.008C68.1906 184.115 68.2173 184.253 68.2173 184.424C68.2173 184.669 68.1639 184.92 68.0573 185.176C67.9506 185.432 67.8173 185.597 67.6573 185.672C66.3986 185.16 65.0866 184.888 63.7213 184.856V188.648H67.1933C67.2466 188.84 67.2733 189.021 67.2733 189.192C67.2733 189.395 67.2466 189.592 67.1933 189.784H63.7373V193.992C64.4413 193.971 65.2199 193.875 66.0733 193.704C66.9266 193.523 67.5826 193.331 68.0413 193.128ZM81.3654 192.744C81.3654 193.555 81.4667 194.227 81.6694 194.76C81.552 194.877 81.3867 194.984 81.1734 195.08C80.96 195.176 80.7254 195.224 80.4694 195.224C80.1387 195.224 79.8667 195.128 79.6534 194.936C79.44 194.744 79.3334 194.483 79.3334 194.152L79.3174 186.2L76.5494 193.688C76.1227 193.837 75.7494 193.912 75.4294 193.912C75.1414 193.912 74.8747 193.859 74.6294 193.752C74.1067 192.675 73.5734 191.459 73.0294 190.104C72.4854 188.749 71.9947 187.421 71.5574 186.12L71.5734 192.744C71.5734 193.683 71.6747 194.424 71.8774 194.968C71.7067 195.139 71.4614 195.224 71.1414 195.224C70.672 195.224 70.4374 194.947 70.4374 194.392V186.072C70.4374 185.112 70.4 184.392 70.3254 183.912C70.5067 183.731 70.992 183.64 71.7814 183.64C72.0374 183.64 72.2507 183.672 72.4214 183.736C72.592 183.8 72.7414 183.896 72.8694 184.024C74.2347 187.608 75.248 190.243 75.9094 191.928C77.2107 188.312 78.1494 185.619 78.7254 183.848C79.0987 183.709 79.5414 183.64 80.0534 183.64C80.3627 183.64 80.6454 183.688 80.9014 183.784C81.168 183.869 81.3227 183.971 81.3654 184.088V192.744ZM25.7041 221.224C24.7548 221.224 24.0561 221.048 23.6081 220.696C23.1601 220.333 22.9361 219.891 22.9361 219.368C22.9361 218.995 23.0375 218.675 23.2401 218.408C23.4428 218.141 23.7415 218.008 24.1361 218.008C24.5521 218.008 24.8455 218.157 25.0161 218.456C24.8561 218.776 24.7761 219.096 24.7761 219.416C24.7761 219.715 24.8615 219.971 25.0321 220.184C25.2135 220.387 25.4375 220.488 25.7041 220.488C26.1415 220.488 26.4348 220.28 26.5841 219.864C26.7441 219.437 26.8241 218.851 26.8241 218.104V211.496C26.8241 211.229 26.8295 211.021 26.8401 210.872C26.8615 210.712 26.8988 210.584 26.9521 210.488L25.6241 210.44C25.4108 210.429 25.2241 210.477 25.0641 210.584C24.9041 210.68 24.8241 210.845 24.8241 211.08C24.8241 211.496 24.9948 211.811 25.3361 212.024C25.1335 212.184 24.8508 212.264 24.4881 212.264C24.1468 212.264 23.8481 212.152 23.5921 211.928C23.3468 211.693 23.2241 211.373 23.2241 210.968C23.2241 210.552 23.3788 210.227 23.6881 209.992C24.0081 209.747 24.4615 209.624 25.0481 209.624C25.2188 209.624 25.5495 209.635 26.0401 209.656C26.3281 209.677 26.7761 209.699 27.3841 209.72C27.8961 209.72 28.4401 209.688 29.0161 209.624C28.9521 209.965 28.9201 210.381 28.9201 210.872V217.864C28.9201 220.104 27.8481 221.224 25.7041 221.224ZM34.5868 221.24C33.3388 221.24 32.3948 221.032 31.7548 220.616C31.1148 220.189 30.7948 219.64 30.7948 218.968C30.7948 218.627 30.8961 218.349 31.0988 218.136C31.3014 217.912 31.6321 217.8 32.0908 217.8C32.2828 217.8 32.4374 217.811 32.5548 217.832C32.5228 217.971 32.5068 218.115 32.5068 218.264C32.5068 218.371 32.5174 218.499 32.5388 218.648C32.6134 219.16 32.8481 219.592 33.2428 219.944C33.6374 220.296 34.1868 220.472 34.8908 220.472C35.4134 220.472 35.8454 220.333 36.1868 220.056C36.5281 219.768 36.6988 219.352 36.6988 218.808C36.6988 218.296 36.5281 217.869 36.1868 217.528C35.8561 217.176 35.2801 216.771 34.4588 216.312C33.6801 215.864 33.0668 215.475 32.6188 215.144C32.1708 214.803 31.8188 214.419 31.5628 213.992C31.3174 213.555 31.1948 213.043 31.1948 212.456C31.1948 211.496 31.5468 210.787 32.2508 210.328C32.9654 209.859 33.8721 209.624 34.9708 209.624C35.9948 209.624 36.8161 209.784 37.4348 210.104C38.0534 210.424 38.3628 210.888 38.3628 211.496C38.3628 211.784 38.2774 212.019 38.1068 212.2C37.9468 212.371 37.6748 212.461 37.2908 212.472C37.2481 212.483 37.1734 212.488 37.0668 212.488C36.9708 212.488 36.8481 212.477 36.6988 212.456C36.7201 212.104 36.6774 211.795 36.5708 211.528C36.4854 211.176 36.2881 210.893 35.9788 210.68C35.6694 210.456 35.2534 210.344 34.7308 210.344C34.3041 210.344 33.9308 210.451 33.6108 210.664C33.3014 210.877 33.1468 211.229 33.1468 211.72C33.1468 212.061 33.2214 212.365 33.3708 212.632C33.5201 212.899 33.7708 213.165 34.1228 213.432C34.4748 213.699 34.9761 214.013 35.6268 214.376C36.2668 214.728 36.8001 215.064 37.2268 215.384C37.6534 215.693 38.0108 216.072 38.2987 216.52C38.5868 216.968 38.7308 217.491 38.7308 218.088C38.7308 218.675 38.5761 219.208 38.2668 219.688C37.9681 220.157 37.5041 220.536 36.8748 220.824C36.2561 221.101 35.4934 221.24 34.5868 221.24ZM41.8413 221.224C41.4893 221.224 41.2013 221.128 40.9773 220.936C40.7533 220.744 40.6413 220.483 40.6413 220.152V212.12C40.6413 211.309 40.5399 210.637 40.3372 210.104C40.4546 209.987 40.6146 209.88 40.8173 209.784C41.0306 209.688 41.2706 209.64 41.5373 209.64C41.8893 209.64 42.1773 209.736 42.4013 209.928C42.6253 210.12 42.7373 210.381 42.7373 210.712V218.744C42.7373 219.587 42.8386 220.259 43.0413 220.76C42.9239 220.877 42.7586 220.984 42.5453 221.08C42.3426 221.176 42.1079 221.224 41.8413 221.224ZM50.0116 221C49.6383 221 49.3396 220.904 49.1156 220.712C48.9023 220.52 48.7956 220.264 48.7956 219.944L48.7796 212.12V211.544C48.7796 210.755 48.7103 210.179 48.5716 209.816C49.2436 209.731 50.4276 209.688 52.1236 209.688C53.745 209.688 54.9876 210.163 55.8516 211.112C56.7263 212.051 57.1636 213.437 57.1636 215.272C57.1636 219.091 55.521 221 52.2356 221H50.0116ZM52.1236 220.264C52.7636 220.264 53.281 220.104 53.6756 219.784C54.081 219.464 54.3796 218.952 54.5716 218.248C54.7636 217.533 54.8596 216.589 54.8596 215.416C54.8596 213.688 54.6356 212.424 54.1876 211.624C53.7503 210.824 53.0623 210.424 52.1236 210.424H50.8916V220.264H52.1236ZM63.2651 221.224C61.7718 221.224 60.6411 220.739 59.8731 219.768C59.1158 218.797 58.7371 217.347 58.7371 215.416C58.7371 213.496 59.1158 212.051 59.8731 211.08C60.6411 210.109 61.7718 209.624 63.2651 209.624C64.7585 209.624 65.8838 210.109 66.6411 211.08C67.4091 212.051 67.7931 213.496 67.7931 215.416C67.7931 217.347 67.4091 218.797 66.6411 219.768C65.8838 220.739 64.7585 221.224 63.2651 221.224ZM63.2651 220.488C64.0331 220.488 64.5931 220.088 64.9451 219.288C65.2971 218.477 65.4731 217.187 65.4731 215.416C65.4731 213.645 65.2971 212.36 64.9451 211.56C64.5931 210.749 64.0331 210.344 63.2651 210.344C62.4971 210.344 61.9318 210.749 61.5691 211.56C61.2171 212.371 61.0411 213.656 61.0411 215.416C61.0411 217.176 61.2171 218.461 61.5691 219.272C61.9318 220.083 62.4971 220.488 63.2651 220.488ZM74.8981 214.984C75.6875 215.101 76.3115 215.405 76.7701 215.896C77.2395 216.387 77.4741 217.037 77.4741 217.848C77.4741 218.904 77.0795 219.693 76.2901 220.216C75.5115 220.739 74.3861 221 72.9141 221H71.1381C70.7861 221 70.4981 220.904 70.2741 220.712C70.0501 220.52 69.9381 220.259 69.9381 219.928V212.12C69.9381 211.309 69.8368 210.637 69.6341 210.104C70.2955 209.784 71.2608 209.624 72.5301 209.624C73.9701 209.624 75.0635 209.837 75.8101 210.264C76.5568 210.691 76.9301 211.373 76.9301 212.312C76.9301 212.973 76.7488 213.544 76.3861 214.024C76.0341 214.493 75.5381 214.813 74.8981 214.984ZM72.0341 210.36V214.712H72.8661C73.4848 214.723 73.9435 214.531 74.2421 214.136C74.5515 213.741 74.7061 213.192 74.7061 212.488C74.7061 211.805 74.5408 211.283 74.2101 210.92C73.8795 210.547 73.3301 210.36 72.5621 210.36H72.0341ZM72.8341 220.264C73.6448 220.264 74.2368 220.051 74.6101 219.624C74.9941 219.197 75.1861 218.616 75.1861 217.88C75.1861 216.973 74.9835 216.344 74.5781 215.992C74.1835 215.629 73.6128 215.448 72.8661 215.448H72.0341V220.264H72.8341ZM87.8519 219.48C87.9372 219.683 87.9799 219.875 87.9799 220.056C87.9799 220.429 87.8412 220.717 87.5639 220.92C87.2865 221.123 87.0039 221.224 86.7159 221.224C86.2999 221.224 85.9585 221.139 85.6919 220.968C85.4359 220.787 85.2225 220.547 85.0519 220.248C84.8919 219.939 84.6945 219.491 84.4599 218.904L83.9639 217.592C83.8252 217.24 83.6972 216.968 83.5799 216.776C83.4625 216.573 83.2972 216.408 83.0839 216.28C82.8705 216.141 82.5879 216.072 82.2359 216.072L81.6279 216.056V218.856C81.6279 219.656 81.7292 220.291 81.9319 220.76C81.8145 220.877 81.6492 220.984 81.4359 221.08C81.2332 221.176 80.9985 221.224 80.7319 221.224C80.3799 221.224 80.0919 221.128 79.8679 220.936C79.6439 220.744 79.5319 220.483 79.5319 220.152V212.12C79.5319 211.309 79.4305 210.637 79.2279 210.104C79.8892 209.784 80.8759 209.624 82.1879 209.624C83.7452 209.624 84.9132 209.853 85.6919 210.312C86.4812 210.771 86.8759 211.512 86.8759 212.536C86.8759 213.315 86.6519 213.976 86.2039 214.52C85.7559 215.053 85.1372 215.421 84.3479 215.624C84.7105 215.731 85.0092 215.896 85.2439 216.12C85.4892 216.344 85.7079 216.632 85.8999 216.984L86.5719 218.536C86.7319 218.909 86.8812 219.181 87.0199 219.352C87.1585 219.523 87.3079 219.613 87.4679 219.624C87.6172 219.624 87.7452 219.576 87.8519 219.48ZM81.6279 215.304C81.9265 215.325 82.1612 215.331 82.3319 215.32C83.0572 215.299 83.6119 215.043 83.9959 214.552C84.3799 214.061 84.5719 213.437 84.5719 212.68C84.5719 211.955 84.3959 211.384 84.0439 210.968C83.6919 210.552 83.1265 210.344 82.3479 210.344C81.9959 210.344 81.7559 210.355 81.6279 210.376V215.304ZM93.9795 216.808V218.744C93.9795 219.555 94.0808 220.227 94.2835 220.76C94.1662 220.877 94.0008 220.984 93.7875 221.08C93.5742 221.176 93.3395 221.224 93.0835 221.224C92.7315 221.224 92.4435 221.128 92.2195 220.936C91.9955 220.744 91.8835 220.483 91.8835 220.152V216.808C91.7662 216.659 91.6488 216.461 91.5315 216.216L89.0515 211.4C88.8168 210.963 88.5555 210.605 88.2675 210.328C88.4275 210.168 88.6355 210.024 88.8915 209.896C89.1475 209.757 89.4355 209.688 89.7555 209.688C90.1395 209.688 90.4328 209.784 90.6355 209.976C90.8382 210.168 91.0302 210.461 91.2115 210.856L93.3395 215.432L95.2755 211.144C95.3928 210.899 95.4515 210.669 95.4515 210.456C95.4515 210.349 95.4302 210.248 95.3875 210.152C95.3555 210.045 95.3075 209.96 95.2435 209.896C95.5742 209.757 95.9688 209.688 96.4275 209.688C96.7475 209.688 96.9875 209.773 97.1475 209.944C97.3075 210.104 97.3928 210.317 97.4035 210.584C97.4035 210.744 97.3555 210.941 97.2595 211.176C97.1742 211.4 97.0568 211.629 96.9075 211.864L93.9795 216.808ZM92.5875 209.08C92.5235 209.048 92.4488 208.973 92.3635 208.856C92.2888 208.739 92.2515 208.659 92.2515 208.616L94.5555 206.52C94.7475 206.605 94.9662 206.781 95.2115 207.048C95.4675 207.315 95.6382 207.565 95.7235 207.8L92.5875 209.08Z" fill="#8D2E2A"/>
<path d="M350.584 198.224C349.166 198.224 348.062 197.717 347.272 196.704C346.494 195.691 346.104 194.261 346.104 192.416C346.104 190.571 346.51 189.147 347.32 188.144C348.131 187.131 349.267 186.624 350.728 186.624C351.326 186.624 351.896 186.699 352.44 186.848C352.984 186.997 353.427 187.216 353.768 187.504C354.12 187.792 354.296 188.128 354.296 188.512C354.296 188.843 354.147 189.131 353.848 189.376C353.55 189.611 353.139 189.723 352.616 189.712C352.456 188.133 351.838 187.344 350.76 187.344C349.96 187.344 349.368 187.765 348.984 188.608C348.6 189.44 348.408 190.709 348.408 192.416C348.408 194.123 348.595 195.397 348.968 196.24C349.342 197.072 349.923 197.488 350.712 197.488C351.288 197.488 351.758 197.275 352.12 196.848C352.483 196.421 352.718 195.781 352.824 194.928C352.974 194.907 353.086 194.896 353.16 194.896C353.544 194.896 353.875 194.992 354.152 195.184C354.44 195.376 354.584 195.637 354.584 195.968C354.584 196.437 354.392 196.843 354.008 197.184C353.624 197.525 353.123 197.787 352.504 197.968C351.896 198.139 351.256 198.224 350.584 198.224ZM360.492 198.224C358.998 198.224 357.868 197.739 357.1 196.768C356.342 195.797 355.964 194.347 355.964 192.416C355.964 190.496 356.342 189.051 357.1 188.08C357.868 187.109 358.998 186.624 360.492 186.624C361.985 186.624 363.11 187.109 363.868 188.08C364.636 189.051 365.02 190.496 365.02 192.416C365.02 194.347 364.636 195.797 363.868 196.768C363.11 197.739 361.985 198.224 360.492 198.224ZM360.492 197.488C361.26 197.488 361.82 197.088 362.172 196.288C362.524 195.477 362.7 194.187 362.7 192.416C362.7 190.645 362.524 189.36 362.172 188.56C361.82 187.749 361.26 187.344 360.492 187.344C359.724 187.344 359.158 187.749 358.796 188.56C358.444 189.371 358.268 190.656 358.268 192.416C358.268 194.176 358.444 195.461 358.796 196.272C359.158 197.083 359.724 197.488 360.492 197.488ZM373.595 198.24C372.347 198.24 371.403 198.032 370.763 197.616C370.123 197.189 369.803 196.64 369.803 195.968C369.803 195.627 369.904 195.349 370.107 195.136C370.309 194.912 370.64 194.8 371.099 194.8C371.291 194.8 371.445 194.811 371.563 194.832C371.531 194.971 371.515 195.115 371.515 195.264C371.515 195.371 371.525 195.499 371.547 195.648C371.621 196.16 371.856 196.592 372.251 196.944C372.645 197.296 373.195 197.472 373.899 197.472C374.421 197.472 374.853 197.333 375.195 197.056C375.536 196.768 375.707 196.352 375.707 195.808C375.707 195.296 375.536 194.869 375.195 194.528C374.864 194.176 374.288 193.771 373.467 193.312C372.688 192.864 372.075 192.475 371.627 192.144C371.179 191.803 370.827 191.419 370.571 190.992C370.325 190.555 370.203 190.043 370.203 189.456C370.203 188.496 370.555 187.787 371.259 187.328C371.973 186.859 372.88 186.624 373.979 186.624C375.003 186.624 375.824 186.784 376.443 187.104C377.061 187.424 377.371 187.888 377.371 188.496C377.371 188.784 377.285 189.019 377.115 189.2C376.955 189.371 376.683 189.461 376.299 189.472C376.256 189.483 376.181 189.488 376.075 189.488C375.979 189.488 375.856 189.477 375.707 189.456C375.728 189.104 375.685 188.795 375.579 188.528C375.493 188.176 375.296 187.893 374.987 187.68C374.677 187.456 374.261 187.344 373.739 187.344C373.312 187.344 372.939 187.451 372.619 187.664C372.309 187.877 372.155 188.229 372.155 188.72C372.155 189.061 372.229 189.365 372.379 189.632C372.528 189.899 372.779 190.165 373.131 190.432C373.483 190.699 373.984 191.013 374.635 191.376C375.275 191.728 375.808 192.064 376.235 192.384C376.661 192.693 377.019 193.072 377.307 193.52C377.595 193.968 377.739 194.491 377.739 195.088C377.739 195.675 377.584 196.208 377.275 196.688C376.976 197.157 376.512 197.536 375.883 197.824C375.264 198.101 374.501 198.24 373.595 198.24ZM386.545 186.624C386.961 186.624 387.26 186.693 387.441 186.832C387.633 186.971 387.729 187.189 387.729 187.488C387.729 187.776 387.654 188.133 387.505 188.56L384.433 197.936C383.953 198.128 383.484 198.224 383.025 198.224C382.652 198.224 382.358 198.176 382.145 198.08C381.932 197.995 381.793 197.851 381.729 197.648L378.865 188.08C378.737 187.632 378.566 187.296 378.353 187.072C378.63 186.773 379.046 186.624 379.601 186.624C380.358 186.624 380.806 186.891 380.945 187.424L383.313 196.704L385.457 188.048C385.532 187.771 385.569 187.536 385.569 187.344C385.569 187.141 385.521 186.971 385.425 186.832C385.756 186.693 386.129 186.624 386.545 186.624ZM395.768 196.128C395.896 196.203 395.992 196.336 396.056 196.528C396.13 196.72 396.168 196.923 396.168 197.136C396.168 197.381 396.125 197.589 396.04 197.76C395.954 197.92 395.826 198 395.656 198H390.568C390.216 198 389.928 197.904 389.704 197.712C389.48 197.52 389.368 197.259 389.368 196.928V189.392C389.368 188.581 389.266 187.909 389.064 187.376C389.32 187.163 389.576 187.024 389.832 186.96C390.098 186.885 390.477 186.848 390.968 186.848H395.608C395.725 186.848 395.81 186.901 395.864 187.008C395.917 187.115 395.944 187.253 395.944 187.424C395.944 187.669 395.89 187.92 395.784 188.176C395.677 188.432 395.544 188.597 395.384 188.672C394.125 188.16 392.813 187.888 391.448 187.856V191.648H394.92C394.973 191.84 395 192.021 395 192.192C395 192.395 394.973 192.592 394.92 192.784H391.464V196.992C392.168 196.971 392.946 196.875 393.8 196.704C394.653 196.523 395.309 196.331 395.768 196.128ZM393.016 185.984C392.909 186.037 392.744 186.064 392.52 186.064C392.253 186.064 392.066 186.037 391.96 185.984L389.768 183.888C389.778 183.835 389.826 183.755 389.912 183.648C389.997 183.541 390.072 183.472 390.136 183.44L392.504 184.704L394.84 183.44C394.904 183.472 394.978 183.541 395.064 183.648C395.16 183.755 395.213 183.835 395.224 183.888L393.016 185.984ZM405.156 186.848C405.263 186.848 405.343 186.901 405.396 187.008C405.46 187.115 405.492 187.253 405.492 187.424C405.492 187.669 405.439 187.92 405.332 188.176C405.225 188.432 405.087 188.597 404.916 188.672C403.913 188.181 403.044 187.856 402.308 187.696L402.324 195.744C402.324 196.587 402.425 197.259 402.628 197.76C402.5 197.877 402.329 197.984 402.116 198.08C401.913 198.176 401.679 198.224 401.412 198.224C401.06 198.224 400.772 198.128 400.548 197.936C400.324 197.744 400.212 197.483 400.212 197.152V187.696C399.519 187.845 398.649 188.171 397.604 188.672C397.444 188.597 397.311 188.432 397.204 188.176C397.097 187.92 397.044 187.669 397.044 187.424C397.044 187.253 397.071 187.115 397.124 187.008C397.177 186.901 397.263 186.848 397.38 186.848H405.156ZM337.068 212.624C338.668 212.624 339.874 212.891 340.684 213.424C341.506 213.947 341.916 214.779 341.916 215.92C341.916 217.125 341.49 218.053 340.636 218.704C339.794 219.344 338.578 219.664 336.988 219.664H336.604V221.856C336.604 222.656 336.706 223.291 336.908 223.76C336.791 223.877 336.626 223.984 336.412 224.08C336.21 224.176 335.975 224.224 335.708 224.224C335.356 224.224 335.068 224.128 334.844 223.936C334.62 223.744 334.508 223.483 334.508 223.152V215.12C334.508 214.309 334.407 213.637 334.204 213.104C334.866 212.784 335.82 212.624 337.068 212.624ZM336.892 218.944C337.863 218.944 338.556 218.693 338.972 218.192C339.399 217.691 339.612 216.987 339.612 216.08C339.612 214.267 338.78 213.36 337.116 213.36C336.871 213.36 336.7 213.365 336.604 213.376V218.944H336.892ZM347.773 224.224C346.28 224.224 345.149 223.739 344.381 222.768C343.624 221.797 343.245 220.347 343.245 218.416C343.245 216.496 343.624 215.051 344.381 214.08C345.149 213.109 346.28 212.624 347.773 212.624C349.266 212.624 350.392 213.109 351.149 214.08C351.917 215.051 352.301 216.496 352.301 218.416C352.301 220.347 351.917 221.797 351.149 222.768C350.392 223.739 349.266 224.224 347.773 224.224ZM347.773 223.488C348.541 223.488 349.101 223.088 349.453 222.288C349.805 221.477 349.981 220.187 349.981 218.416C349.981 216.645 349.805 215.36 349.453 214.56C349.101 213.749 348.541 213.344 347.773 213.344C347.005 213.344 346.44 213.749 346.077 214.56C345.725 215.371 345.549 216.656 345.549 218.416C345.549 220.176 345.725 221.461 346.077 222.272C346.44 223.083 347.005 223.488 347.773 223.488ZM361.406 212.848C361.513 212.848 361.593 212.901 361.646 213.008C361.71 213.115 361.742 213.253 361.742 213.424C361.742 213.669 361.689 213.92 361.582 214.176C361.475 214.432 361.337 214.597 361.166 214.672C360.163 214.181 359.294 213.856 358.558 213.696L358.574 221.744C358.574 222.587 358.675 223.259 358.878 223.76C358.75 223.877 358.579 223.984 358.366 224.08C358.163 224.176 357.929 224.224 357.662 224.224C357.31 224.224 357.022 224.128 356.798 223.936C356.574 223.744 356.462 223.483 356.462 223.152V213.696C355.769 213.845 354.899 214.171 353.854 214.672C353.694 214.597 353.561 214.432 353.454 214.176C353.347 213.92 353.294 213.669 353.294 213.424C353.294 213.253 353.321 213.115 353.374 213.008C353.427 212.901 353.513 212.848 353.63 212.848H361.406ZM371.61 222.48C371.695 222.683 371.738 222.875 371.738 223.056C371.738 223.429 371.599 223.717 371.322 223.92C371.044 224.123 370.762 224.224 370.474 224.224C370.058 224.224 369.716 224.139 369.45 223.968C369.194 223.787 368.98 223.547 368.81 223.248C368.65 222.939 368.452 222.491 368.218 221.904L367.722 220.592C367.583 220.24 367.455 219.968 367.338 219.776C367.22 219.573 367.055 219.408 366.842 219.28C366.628 219.141 366.346 219.072 365.994 219.072L365.386 219.056V221.856C365.386 222.656 365.487 223.291 365.69 223.76C365.572 223.877 365.407 223.984 365.194 224.08C364.991 224.176 364.756 224.224 364.49 224.224C364.138 224.224 363.85 224.128 363.626 223.936C363.402 223.744 363.29 223.483 363.29 223.152V215.12C363.29 214.309 363.188 213.637 362.986 213.104C363.647 212.784 364.634 212.624 365.946 212.624C367.503 212.624 368.671 212.853 369.45 213.312C370.239 213.771 370.634 214.512 370.634 215.536C370.634 216.315 370.41 216.976 369.962 217.52C369.514 218.053 368.895 218.421 368.106 218.624C368.468 218.731 368.767 218.896 369.002 219.12C369.247 219.344 369.466 219.632 369.658 219.984L370.33 221.536C370.49 221.909 370.639 222.181 370.778 222.352C370.916 222.523 371.066 222.613 371.226 222.624C371.375 222.624 371.503 222.576 371.61 222.48ZM365.386 218.304C365.684 218.325 365.919 218.331 366.09 218.32C366.815 218.299 367.37 218.043 367.754 217.552C368.138 217.061 368.33 216.437 368.33 215.68C368.33 214.955 368.154 214.384 367.802 213.968C367.45 213.552 366.884 213.344 366.106 213.344C365.754 213.344 365.514 213.355 365.386 213.376V218.304ZM367.338 211.984C367.231 212.037 367.066 212.064 366.842 212.064C366.575 212.064 366.388 212.037 366.282 211.984L364.09 209.888C364.1 209.835 364.148 209.755 364.234 209.648C364.319 209.541 364.394 209.472 364.458 209.44L366.826 210.704L369.162 209.44C369.226 209.472 369.3 209.541 369.386 209.648C369.482 209.755 369.535 209.835 369.546 209.888L367.338 211.984ZM379.705 222.128C379.833 222.203 379.929 222.336 379.993 222.528C380.068 222.72 380.105 222.923 380.105 223.136C380.105 223.381 380.063 223.589 379.977 223.76C379.892 223.92 379.764 224 379.593 224H374.505C374.153 224 373.865 223.904 373.641 223.712C373.417 223.52 373.305 223.259 373.305 222.928V215.392C373.305 214.581 373.204 213.909 373.001 213.376C373.257 213.163 373.513 213.024 373.769 212.96C374.036 212.885 374.415 212.848 374.905 212.848H379.545C379.663 212.848 379.748 212.901 379.801 213.008C379.855 213.115 379.881 213.253 379.881 213.424C379.881 213.669 379.828 213.92 379.721 214.176C379.615 214.432 379.481 214.597 379.321 214.672C378.063 214.16 376.751 213.888 375.385 213.856V217.648H378.857C378.911 217.84 378.937 218.021 378.937 218.192C378.937 218.395 378.911 218.592 378.857 218.784H375.401V222.992C376.105 222.971 376.884 222.875 377.737 222.704C378.591 222.523 379.247 222.331 379.705 222.128ZM387.093 217.984C387.883 218.101 388.507 218.405 388.965 218.896C389.435 219.387 389.669 220.037 389.669 220.848C389.669 221.904 389.275 222.693 388.485 223.216C387.707 223.739 386.581 224 385.109 224H383.333C382.981 224 382.693 223.904 382.469 223.712C382.245 223.52 382.133 223.259 382.133 222.928V215.12C382.133 214.309 382.032 213.637 381.829 213.104C382.491 212.784 383.456 212.624 384.725 212.624C386.165 212.624 387.259 212.837 388.005 213.264C388.752 213.691 389.125 214.373 389.125 215.312C389.125 215.973 388.944 216.544 388.581 217.024C388.229 217.493 387.733 217.813 387.093 217.984ZM384.229 213.36V217.712H385.061C385.68 217.723 386.139 217.531 386.437 217.136C386.747 216.741 386.901 216.192 386.901 215.488C386.901 214.805 386.736 214.283 386.405 213.92C386.075 213.547 385.525 213.36 384.757 213.36H384.229ZM385.029 223.264C385.84 223.264 386.432 223.051 386.805 222.624C387.189 222.197 387.381 221.616 387.381 220.88C387.381 219.973 387.179 219.344 386.773 218.992C386.379 218.629 385.808 218.448 385.061 218.448H384.229V223.264H385.029ZM399.951 219.088C399.951 220.795 399.599 222.08 398.895 222.944C398.191 223.797 397.146 224.224 395.759 224.224C394.394 224.224 393.37 223.808 392.687 222.976C392.015 222.144 391.679 220.848 391.679 219.088V215.12C391.679 214.309 391.578 213.637 391.375 213.104C391.493 212.987 391.653 212.88 391.855 212.784C392.069 212.688 392.309 212.64 392.575 212.64C392.917 212.64 393.199 212.736 393.423 212.928C393.647 213.12 393.759 213.381 393.759 213.712V219.2C393.759 220.704 393.919 221.797 394.239 222.48C394.559 223.152 395.066 223.488 395.759 223.488C396.485 223.488 397.018 223.131 397.359 222.416C397.701 221.701 397.871 220.629 397.871 219.2V215.12C397.871 214.309 397.77 213.637 397.567 213.104C397.695 212.987 397.861 212.88 398.063 212.784C398.266 212.688 398.495 212.64 398.751 212.64C399.093 212.64 399.375 212.736 399.599 212.928C399.834 213.12 399.951 213.381 399.951 213.712V219.088ZM404.509 224.224C403.559 224.224 402.861 224.048 402.413 223.696C401.965 223.333 401.741 222.891 401.741 222.368C401.741 221.995 401.842 221.675 402.045 221.408C402.247 221.141 402.546 221.008 402.941 221.008C403.357 221.008 403.65 221.157 403.821 221.456C403.661 221.776 403.581 222.096 403.581 222.416C403.581 222.715 403.666 222.971 403.837 223.184C404.018 223.387 404.242 223.488 404.509 223.488C404.946 223.488 405.239 223.28 405.389 222.864C405.549 222.437 405.629 221.851 405.629 221.104V214.496C405.629 214.229 405.634 214.021 405.645 213.872C405.666 213.712 405.703 213.584 405.757 213.488L404.429 213.44C404.215 213.429 404.029 213.477 403.869 213.584C403.709 213.68 403.629 213.845 403.629 214.08C403.629 214.496 403.799 214.811 404.141 215.024C403.938 215.184 403.655 215.264 403.293 215.264C402.951 215.264 402.653 215.152 402.397 214.928C402.151 214.693 402.029 214.373 402.029 213.968C402.029 213.552 402.183 213.227 402.493 212.992C402.813 212.747 403.266 212.624 403.853 212.624C404.023 212.624 404.354 212.635 404.845 212.656C405.133 212.677 405.581 212.699 406.189 212.72C406.701 212.72 407.245 212.688 407.821 212.624C407.757 212.965 407.725 213.381 407.725 213.872V220.864C407.725 223.104 406.653 224.224 404.509 224.224ZM416.783 222.128C416.911 222.203 417.007 222.336 417.071 222.528C417.146 222.72 417.183 222.923 417.183 223.136C417.183 223.381 417.141 223.589 417.055 223.76C416.97 223.92 416.842 224 416.671 224H411.583C411.231 224 410.943 223.904 410.719 223.712C410.495 223.52 410.383 223.259 410.383 222.928V215.392C410.383 214.581 410.282 213.909 410.079 213.376C410.335 213.163 410.591 213.024 410.847 212.96C411.114 212.885 411.493 212.848 411.983 212.848H416.623C416.741 212.848 416.826 212.901 416.879 213.008C416.933 213.115 416.959 213.253 416.959 213.424C416.959 213.669 416.906 213.92 416.799 214.176C416.693 214.432 416.559 214.597 416.399 214.672C415.141 214.16 413.829 213.888 412.463 213.856V217.648H415.935C415.989 217.84 416.015 218.021 416.015 218.192C416.015 218.395 415.989 218.592 415.935 218.784H412.479V222.992C413.183 222.971 413.962 222.875 414.815 222.704C415.669 222.523 416.325 222.331 416.783 222.128Z" fill="#8D2E2A"/>
<path d="M135.865 129.624C136.281 129.624 136.58 129.693 136.761 129.832C136.953 129.971 137.049 130.189 137.049 130.488C137.049 130.776 136.975 131.133 136.825 131.56L133.753 140.936C133.273 141.128 132.804 141.224 132.345 141.224C131.972 141.224 131.679 141.176 131.465 141.08C131.252 140.995 131.113 140.851 131.049 140.648L128.185 131.08C128.057 130.632 127.887 130.296 127.673 130.072C127.951 129.773 128.367 129.624 128.921 129.624C129.679 129.624 130.127 129.891 130.265 130.424L132.633 139.704L134.777 131.048C134.852 130.771 134.889 130.536 134.889 130.344C134.889 130.141 134.841 129.971 134.745 129.832C135.076 129.693 135.449 129.624 135.865 129.624ZM146.72 139.752C146.848 140.189 147.019 140.52 147.232 140.744C146.955 141.064 146.544 141.224 146 141.224C145.669 141.224 145.387 141.155 145.152 141.016C144.928 140.877 144.789 140.675 144.736 140.408L144.016 137.72H140.4L139.872 139.784C139.797 140.061 139.76 140.296 139.76 140.488C139.76 140.712 139.819 140.883 139.936 141C139.733 141.075 139.547 141.128 139.376 141.16C139.216 141.203 139.019 141.224 138.784 141.224C138.379 141.224 138.08 141.155 137.888 141.016C137.707 140.877 137.616 140.653 137.616 140.344C137.616 140.088 137.685 139.725 137.824 139.256L140.976 129.896C141.563 129.704 142.149 129.608 142.736 129.608C143.376 129.608 143.755 129.837 143.872 130.296L146.72 139.752ZM143.712 136.584L142.176 130.856L140.688 136.584H143.712ZM141.728 129.08C141.664 129.048 141.589 128.973 141.504 128.856C141.429 128.739 141.392 128.659 141.392 128.616L143.696 126.52C143.888 126.605 144.107 126.781 144.352 127.048C144.608 127.315 144.779 127.565 144.864 127.8L141.728 129.08ZM151.665 141.24C150.417 141.24 149.473 141.032 148.833 140.616C148.193 140.189 147.873 139.64 147.873 138.968C147.873 138.627 147.974 138.349 148.177 138.136C148.38 137.912 148.71 137.8 149.169 137.8C149.361 137.8 149.516 137.811 149.633 137.832C149.601 137.971 149.585 138.115 149.585 138.264C149.585 138.371 149.596 138.499 149.617 138.648C149.692 139.16 149.926 139.592 150.321 139.944C150.716 140.296 151.265 140.472 151.969 140.472C152.492 140.472 152.924 140.333 153.265 140.056C153.606 139.768 153.777 139.352 153.777 138.808C153.777 138.296 153.606 137.869 153.265 137.528C152.934 137.176 152.358 136.771 151.537 136.312C150.758 135.864 150.145 135.475 149.697 135.144C149.249 134.803 148.897 134.419 148.641 133.992C148.396 133.555 148.273 133.043 148.273 132.456C148.273 131.496 148.625 130.787 149.329 130.328C150.044 129.859 150.95 129.624 152.049 129.624C153.073 129.624 153.894 129.784 154.513 130.104C155.132 130.424 155.441 130.888 155.441 131.496C155.441 131.784 155.356 132.019 155.185 132.2C155.025 132.371 154.753 132.461 154.369 132.472C154.326 132.483 154.252 132.488 154.145 132.488C154.049 132.488 153.926 132.477 153.777 132.456C153.798 132.104 153.756 131.795 153.649 131.528C153.564 131.176 153.366 130.893 153.057 130.68C152.748 130.456 152.332 130.344 151.809 130.344C151.382 130.344 151.009 130.451 150.689 130.664C150.38 130.877 150.225 131.229 150.225 131.72C150.225 132.061 150.3 132.365 150.449 132.632C150.598 132.899 150.849 133.165 151.201 133.432C151.553 133.699 152.054 134.013 152.705 134.376C153.345 134.728 153.878 135.064 154.305 135.384C154.732 135.693 155.089 136.072 155.377 136.52C155.665 136.968 155.809 137.491 155.809 138.088C155.809 138.675 155.654 139.208 155.345 139.688C155.046 140.157 154.582 140.536 153.953 140.824C153.334 141.101 152.572 141.24 151.665 141.24ZM152.433 128.984C152.326 129.037 152.161 129.064 151.937 129.064C151.67 129.064 151.484 129.037 151.377 128.984L149.185 126.888C149.196 126.835 149.244 126.755 149.329 126.648C149.414 126.541 149.489 126.472 149.553 126.44L151.921 127.704L154.257 126.44C154.321 126.472 154.396 126.541 154.481 126.648C154.577 126.755 154.63 126.835 154.641 126.888L152.433 128.984ZM164.119 139.128C164.247 139.203 164.343 139.336 164.407 139.528C164.482 139.72 164.519 139.923 164.519 140.136C164.519 140.381 164.477 140.589 164.391 140.76C164.306 140.92 164.178 141 164.007 141H158.919C158.567 141 158.279 140.904 158.055 140.712C157.831 140.52 157.719 140.259 157.719 139.928V132.392C157.719 131.581 157.618 130.909 157.415 130.376C157.671 130.163 157.927 130.024 158.183 129.96C158.45 129.885 158.829 129.848 159.319 129.848H163.959C164.077 129.848 164.162 129.901 164.215 130.008C164.269 130.115 164.295 130.253 164.295 130.424C164.295 130.669 164.242 130.92 164.135 131.176C164.029 131.432 163.895 131.597 163.735 131.672C162.477 131.16 161.165 130.888 159.799 130.856V134.648H163.271C163.325 134.84 163.351 135.021 163.351 135.192C163.351 135.395 163.325 135.592 163.271 135.784H159.815V139.992C160.519 139.971 161.298 139.875 162.151 139.704C163.005 139.523 163.661 139.331 164.119 139.128ZM167.108 141.224C166.777 141.224 166.489 141.133 166.243 140.952C166.446 140.408 166.548 139.672 166.548 138.744V132.12C166.548 131.235 166.51 130.499 166.436 129.912C166.5 129.827 166.622 129.763 166.804 129.72C166.996 129.677 167.193 129.656 167.396 129.656C167.662 129.656 167.828 129.688 167.892 129.752C168.158 130.136 168.921 131.165 170.18 132.84C171.321 134.365 172.174 135.528 172.74 136.328C173.316 137.128 173.721 137.784 173.956 138.296L173.428 131.112L173.411 130.888C173.411 130.536 173.492 130.253 173.652 130.04C173.822 129.827 174.068 129.704 174.388 129.672C174.729 129.651 175.017 129.72 175.252 129.88C175.113 130.296 175.044 130.952 175.044 131.848L175.028 138.776C175.028 139.725 175.06 140.451 175.124 140.952C175.049 141.027 174.921 141.085 174.74 141.128C174.569 141.181 174.388 141.208 174.196 141.208C173.972 141.208 173.812 141.181 173.716 141.128C170.846 137.768 168.841 135.021 167.7 132.888L168.148 140.024C168.18 140.365 168.084 140.653 167.86 140.888C167.636 141.112 167.385 141.224 167.108 141.224ZM171.332 128.984C171.225 129.037 171.06 129.064 170.836 129.064C170.569 129.064 170.382 129.037 170.276 128.984L168.084 126.888C168.094 126.835 168.142 126.755 168.228 126.648C168.313 126.541 168.388 126.472 168.452 126.44L170.82 127.704L173.156 126.44C173.22 126.472 173.294 126.541 173.38 126.648C173.476 126.755 173.529 126.835 173.54 126.888L171.332 128.984Z" fill="#5B161B"/>
<path d="M113.256 267.624C114.856 267.624 116.061 267.891 116.872 268.424C117.693 268.947 118.104 269.779 118.104 270.92C118.104 272.125 117.677 273.053 116.824 273.704C115.981 274.344 114.765 274.664 113.176 274.664H112.792V276.856C112.792 277.656 112.893 278.291 113.096 278.76C112.979 278.877 112.813 278.984 112.6 279.08C112.397 279.176 112.163 279.224 111.896 279.224C111.544 279.224 111.256 279.128 111.032 278.936C110.808 278.744 110.696 278.483 110.696 278.152V270.12C110.696 269.309 110.595 268.637 110.392 268.104C111.053 267.784 112.008 267.624 113.256 267.624ZM113.08 273.944C114.051 273.944 114.744 273.693 115.16 273.192C115.587 272.691 115.8 271.987 115.8 271.08C115.8 269.267 114.968 268.36 113.304 268.36C113.059 268.36 112.888 268.365 112.792 268.376V273.944H113.08ZM123.96 279.224C122.467 279.224 121.336 278.739 120.568 277.768C119.811 276.797 119.432 275.347 119.432 273.416C119.432 271.496 119.811 270.051 120.568 269.08C121.336 268.109 122.467 267.624 123.96 267.624C125.454 267.624 126.579 268.109 127.336 269.08C128.104 270.051 128.488 271.496 128.488 273.416C128.488 275.347 128.104 276.797 127.336 277.768C126.579 278.739 125.454 279.224 123.96 279.224ZM123.96 278.488C124.728 278.488 125.288 278.088 125.64 277.288C125.992 276.477 126.168 275.187 126.168 273.416C126.168 271.645 125.992 270.36 125.64 269.56C125.288 268.749 124.728 268.344 123.96 268.344C123.192 268.344 122.627 268.749 122.264 269.56C121.912 270.371 121.736 271.656 121.736 273.416C121.736 275.176 121.912 276.461 122.264 277.272C122.627 278.083 123.192 278.488 123.96 278.488ZM137.529 267.624C137.945 267.624 138.244 267.693 138.425 267.832C138.617 267.971 138.713 268.189 138.713 268.488C138.713 268.776 138.639 269.133 138.489 269.56L135.417 278.936C134.937 279.128 134.468 279.224 134.009 279.224C133.636 279.224 133.343 279.176 133.129 279.08C132.916 278.995 132.777 278.851 132.713 278.648L129.849 269.08C129.721 268.632 129.551 268.296 129.337 268.072C129.615 267.773 130.031 267.624 130.585 267.624C131.343 267.624 131.791 267.891 131.929 268.424L134.297 277.704L136.441 269.048C136.516 268.771 136.553 268.536 136.553 268.344C136.553 268.141 136.505 267.971 136.409 267.832C136.74 267.693 137.113 267.624 137.529 267.624ZM144.304 279.224C142.811 279.224 141.68 278.739 140.912 277.768C140.155 276.797 139.776 275.347 139.776 273.416C139.776 271.496 140.155 270.051 140.912 269.08C141.68 268.109 142.811 267.624 144.304 267.624C145.798 267.624 146.923 268.109 147.68 269.08C148.448 270.051 148.832 271.496 148.832 273.416C148.832 275.347 148.448 276.797 147.68 277.768C146.923 278.739 145.798 279.224 144.304 279.224ZM144.304 278.488C145.072 278.488 145.632 278.088 145.984 277.288C146.336 276.477 146.512 275.187 146.512 273.416C146.512 271.645 146.336 270.36 145.984 269.56C145.632 268.749 145.072 268.344 144.304 268.344C143.536 268.344 142.971 268.749 142.608 269.56C142.256 270.371 142.08 271.656 142.08 273.416C142.08 275.176 142.256 276.461 142.608 277.272C142.971 278.083 143.536 278.488 144.304 278.488ZM153.073 277.88C153.767 277.869 154.487 277.779 155.233 277.608C155.991 277.437 156.588 277.235 157.025 277C157.153 277.085 157.249 277.229 157.313 277.432C157.388 277.635 157.425 277.848 157.425 278.072C157.425 278.328 157.377 278.547 157.281 278.728C157.196 278.909 157.068 279 156.897 279H152.177C151.825 279 151.537 278.904 151.313 278.712C151.089 278.52 150.977 278.259 150.977 277.928V270.12C150.977 269.309 150.876 268.637 150.673 268.104C150.791 267.987 150.951 267.88 151.153 267.784C151.367 267.688 151.607 267.64 151.873 267.64C152.225 267.64 152.508 267.736 152.721 267.928C152.945 268.12 153.057 268.381 153.057 268.712L153.073 277.88ZM167.072 277.752C167.2 278.189 167.37 278.52 167.584 278.744C167.306 279.064 166.896 279.224 166.352 279.224C166.021 279.224 165.738 279.155 165.504 279.016C165.28 278.877 165.141 278.675 165.088 278.408L164.368 275.72H160.752L160.224 277.784C160.149 278.061 160.112 278.296 160.112 278.488C160.112 278.712 160.17 278.883 160.288 279C160.085 279.075 159.898 279.128 159.728 279.16C159.568 279.203 159.37 279.224 159.136 279.224C158.73 279.224 158.432 279.155 158.24 279.016C158.058 278.877 157.968 278.653 157.968 278.344C157.968 278.088 158.037 277.725 158.176 277.256L161.328 267.896C161.914 267.704 162.501 267.608 163.088 267.608C163.728 267.608 164.106 267.837 164.224 268.296L167.072 277.752ZM164.064 274.584L162.528 268.856L161.04 274.584H164.064ZM162.08 267.08C162.016 267.048 161.941 266.973 161.856 266.856C161.781 266.739 161.744 266.659 161.744 266.616L164.048 264.52C164.24 264.605 164.458 264.781 164.704 265.048C164.96 265.315 165.13 265.565 165.216 265.8L162.08 267.08ZM169.568 279.224C169.238 279.224 168.95 279.133 168.704 278.952C168.907 278.408 169.008 277.672 169.008 276.744V270.12C169.008 269.235 168.971 268.499 168.896 267.912C168.96 267.827 169.083 267.763 169.264 267.72C169.456 267.677 169.654 267.656 169.856 267.656C170.123 267.656 170.288 267.688 170.352 267.752C170.619 268.136 171.382 269.165 172.64 270.84C173.782 272.365 174.635 273.528 175.2 274.328C175.776 275.128 176.182 275.784 176.416 276.296L175.888 269.112L175.872 268.888C175.872 268.536 175.952 268.253 176.112 268.04C176.283 267.827 176.528 267.704 176.848 267.672C177.19 267.651 177.478 267.72 177.712 267.88C177.574 268.296 177.504 268.952 177.504 269.848L177.488 276.776C177.488 277.725 177.52 278.451 177.584 278.952C177.51 279.027 177.382 279.085 177.2 279.128C177.03 279.181 176.848 279.208 176.656 279.208C176.432 279.208 176.272 279.181 176.176 279.128C173.307 275.768 171.302 273.021 170.16 270.888L170.608 278.024C170.64 278.365 170.544 278.653 170.32 278.888C170.096 279.112 169.846 279.224 169.568 279.224ZM181.412 279.224C181.06 279.224 180.772 279.128 180.548 278.936C180.324 278.744 180.212 278.483 180.212 278.152V270.12C180.212 269.309 180.11 268.637 179.908 268.104C180.025 267.987 180.185 267.88 180.388 267.784C180.601 267.688 180.841 267.64 181.108 267.64C181.46 267.64 181.748 267.736 181.972 267.928C182.196 268.12 182.308 268.381 182.308 268.712V276.744C182.308 277.587 182.409 278.259 182.612 278.76C182.494 278.877 182.329 278.984 182.116 279.08C181.913 279.176 181.678 279.224 181.412 279.224ZM180.372 267.08C180.308 267.048 180.233 266.973 180.148 266.856C180.073 266.739 180.036 266.659 180.036 266.616L182.34 264.52C182.532 264.605 182.75 264.781 182.996 265.048C183.252 265.315 183.422 265.565 183.508 265.8L180.372 267.08Z" fill="#5B161B"/>
<path d="M286.6 141.744C286.6 142.555 286.701 143.227 286.904 143.76C286.786 143.877 286.621 143.984 286.408 144.08C286.194 144.176 285.96 144.224 285.704 144.224C285.373 144.224 285.101 144.128 284.888 143.936C284.674 143.744 284.568 143.483 284.568 143.152L284.552 135.2L281.784 142.688C281.357 142.837 280.984 142.912 280.664 142.912C280.376 142.912 280.109 142.859 279.864 142.752C279.341 141.675 278.808 140.459 278.264 139.104C277.72 137.749 277.229 136.421 276.792 135.12L276.808 141.744C276.808 142.683 276.909 143.424 277.112 143.968C276.941 144.139 276.696 144.224 276.376 144.224C275.906 144.224 275.672 143.947 275.672 143.392V135.072C275.672 134.112 275.634 133.392 275.56 132.912C275.741 132.731 276.226 132.64 277.016 132.64C277.272 132.64 277.485 132.672 277.656 132.736C277.826 132.8 277.976 132.896 278.104 133.024C279.469 136.608 280.482 139.243 281.144 140.928C282.445 137.312 283.384 134.619 283.96 132.848C284.333 132.709 284.776 132.64 285.288 132.64C285.597 132.64 285.88 132.688 286.136 132.784C286.402 132.869 286.557 132.971 286.6 133.088V141.744ZM290.513 144.224C290.161 144.224 289.873 144.128 289.649 143.936C289.425 143.744 289.313 143.483 289.313 143.152V135.12C289.313 134.309 289.212 133.637 289.009 133.104C289.126 132.987 289.286 132.88 289.489 132.784C289.702 132.688 289.942 132.64 290.209 132.64C290.561 132.64 290.849 132.736 291.073 132.928C291.297 133.12 291.409 133.381 291.409 133.712V141.744C291.409 142.587 291.51 143.259 291.713 143.76C291.596 143.877 291.43 143.984 291.217 144.08C291.014 144.176 290.78 144.224 290.513 144.224ZM297.134 144.24C295.886 144.24 294.942 144.032 294.302 143.616C293.662 143.189 293.342 142.64 293.342 141.968C293.342 141.627 293.443 141.349 293.646 141.136C293.848 140.912 294.179 140.8 294.638 140.8C294.83 140.8 294.984 140.811 295.102 140.832C295.07 140.971 295.054 141.115 295.054 141.264C295.054 141.371 295.064 141.499 295.086 141.648C295.16 142.16 295.395 142.592 295.79 142.944C296.184 143.296 296.734 143.472 297.438 143.472C297.96 143.472 298.392 143.333 298.734 143.056C299.075 142.768 299.246 142.352 299.246 141.808C299.246 141.296 299.075 140.869 298.734 140.528C298.403 140.176 297.827 139.771 297.006 139.312C296.227 138.864 295.614 138.475 295.166 138.144C294.718 137.803 294.366 137.419 294.11 136.992C293.864 136.555 293.742 136.043 293.742 135.456C293.742 134.496 294.094 133.787 294.798 133.328C295.512 132.859 296.419 132.624 297.518 132.624C298.542 132.624 299.363 132.784 299.982 133.104C300.6 133.424 300.91 133.888 300.91 134.496C300.91 134.784 300.824 135.019 300.654 135.2C300.494 135.371 300.222 135.461 299.838 135.472C299.795 135.483 299.72 135.488 299.614 135.488C299.518 135.488 299.395 135.477 299.246 135.456C299.267 135.104 299.224 134.795 299.118 134.528C299.032 134.176 298.835 133.893 298.526 133.68C298.216 133.456 297.8 133.344 297.278 133.344C296.851 133.344 296.478 133.451 296.158 133.664C295.848 133.877 295.694 134.229 295.694 134.72C295.694 135.061 295.768 135.365 295.918 135.632C296.067 135.899 296.318 136.165 296.67 136.432C297.022 136.699 297.523 137.013 298.174 137.376C298.814 137.728 299.347 138.064 299.774 138.384C300.2 138.693 300.558 139.072 300.846 139.52C301.134 139.968 301.278 140.491 301.278 141.088C301.278 141.675 301.123 142.208 300.814 142.688C300.515 143.157 300.051 143.536 299.422 143.824C298.803 144.101 298.04 144.24 297.134 144.24ZM309.588 142.128C309.716 142.203 309.812 142.336 309.876 142.528C309.951 142.72 309.988 142.923 309.988 143.136C309.988 143.381 309.945 143.589 309.86 143.76C309.775 143.92 309.647 144 309.476 144H304.388C304.036 144 303.748 143.904 303.524 143.712C303.3 143.52 303.188 143.259 303.188 142.928V135.392C303.188 134.581 303.087 133.909 302.884 133.376C303.14 133.163 303.396 133.024 303.652 132.96C303.919 132.885 304.297 132.848 304.788 132.848H309.428C309.545 132.848 309.631 132.901 309.684 133.008C309.737 133.115 309.764 133.253 309.764 133.424C309.764 133.669 309.711 133.92 309.604 134.176C309.497 134.432 309.364 134.597 309.204 134.672C307.945 134.16 306.633 133.888 305.268 133.856V137.648H308.74C308.793 137.84 308.82 138.021 308.82 138.192C308.82 138.395 308.793 138.592 308.74 138.784H305.284V142.992C305.988 142.971 306.767 142.875 307.62 142.704C308.473 142.523 309.129 142.331 309.588 142.128Z" fill="#5B161B"/>
<path d="M258.397 277.624C259.997 277.624 261.202 277.891 262.013 278.424C262.834 278.947 263.245 279.779 263.245 280.92C263.245 282.125 262.818 283.053 261.965 283.704C261.122 284.344 259.906 284.664 258.317 284.664H257.933V286.856C257.933 287.656 258.034 288.291 258.237 288.76C258.119 288.877 257.954 288.984 257.741 289.08C257.538 289.176 257.303 289.224 257.037 289.224C256.685 289.224 256.397 289.128 256.173 288.936C255.949 288.744 255.837 288.483 255.837 288.152V280.12C255.837 279.309 255.735 278.637 255.533 278.104C256.194 277.784 257.149 277.624 258.397 277.624ZM258.221 283.944C259.191 283.944 259.885 283.693 260.301 283.192C260.727 282.691 260.941 281.987 260.941 281.08C260.941 279.267 260.109 278.36 258.445 278.36C258.199 278.36 258.029 278.365 257.933 278.376V283.944H258.221ZM269.101 289.224C267.608 289.224 266.477 288.739 265.709 287.768C264.952 286.797 264.573 285.347 264.573 283.416C264.573 281.496 264.952 280.051 265.709 279.08C266.477 278.109 267.608 277.624 269.101 277.624C270.594 277.624 271.72 278.109 272.477 279.08C273.245 280.051 273.629 281.496 273.629 283.416C273.629 285.347 273.245 286.797 272.477 287.768C271.72 288.739 270.594 289.224 269.101 289.224ZM269.101 288.488C269.869 288.488 270.429 288.088 270.781 287.288C271.133 286.477 271.309 285.187 271.309 283.416C271.309 281.645 271.133 280.36 270.781 279.56C270.429 278.749 269.869 278.344 269.101 278.344C268.333 278.344 267.768 278.749 267.405 279.56C267.053 280.371 266.877 281.656 266.877 283.416C266.877 285.176 267.053 286.461 267.405 287.272C267.768 288.083 268.333 288.488 269.101 288.488ZM278.782 289.24C277.534 289.24 276.59 289.032 275.95 288.616C275.31 288.189 274.99 287.64 274.99 286.968C274.99 286.627 275.091 286.349 275.294 286.136C275.497 285.912 275.827 285.8 276.286 285.8C276.478 285.8 276.633 285.811 276.75 285.832C276.718 285.971 276.702 286.115 276.702 286.264C276.702 286.371 276.713 286.499 276.734 286.648C276.809 287.16 277.043 287.592 277.438 287.944C277.833 288.296 278.382 288.472 279.086 288.472C279.609 288.472 280.041 288.333 280.382 288.056C280.723 287.768 280.894 287.352 280.894 286.808C280.894 286.296 280.723 285.869 280.382 285.528C280.051 285.176 279.475 284.771 278.654 284.312C277.875 283.864 277.262 283.475 276.814 283.144C276.366 282.803 276.014 282.419 275.758 281.992C275.513 281.555 275.39 281.043 275.39 280.456C275.39 279.496 275.742 278.787 276.446 278.328C277.161 277.859 278.067 277.624 279.166 277.624C280.19 277.624 281.011 277.784 281.63 278.104C282.249 278.424 282.558 278.888 282.558 279.496C282.558 279.784 282.473 280.019 282.302 280.2C282.142 280.371 281.87 280.461 281.486 280.472C281.443 280.483 281.369 280.488 281.262 280.488C281.166 280.488 281.043 280.477 280.894 280.456C280.915 280.104 280.873 279.795 280.766 279.528C280.681 279.176 280.483 278.893 280.174 278.68C279.865 278.456 279.449 278.344 278.926 278.344C278.499 278.344 278.126 278.451 277.806 278.664C277.497 278.877 277.342 279.229 277.342 279.72C277.342 280.061 277.417 280.365 277.566 280.632C277.715 280.899 277.966 281.165 278.318 281.432C278.67 281.699 279.171 282.013 279.822 282.376C280.462 282.728 280.995 283.064 281.422 283.384C281.849 283.693 282.206 284.072 282.494 284.52C282.782 284.968 282.926 285.491 282.926 286.088C282.926 286.675 282.771 287.208 282.462 287.688C282.163 288.157 281.699 288.536 281.07 288.824C280.451 289.101 279.689 289.24 278.782 289.24ZM286.933 287.88C287.626 287.869 288.346 287.779 289.093 287.608C289.85 287.437 290.447 287.235 290.885 287C291.013 287.085 291.109 287.229 291.173 287.432C291.247 287.635 291.285 287.848 291.285 288.072C291.285 288.328 291.237 288.547 291.141 288.728C291.055 288.909 290.927 289 290.757 289H286.037C285.685 289 285.397 288.904 285.173 288.712C284.949 288.52 284.837 288.259 284.837 287.928V280.12C284.837 279.309 284.735 278.637 284.533 278.104C284.65 277.987 284.81 277.88 285.013 277.784C285.226 277.688 285.466 277.64 285.733 277.64C286.085 277.64 286.367 277.736 286.581 277.928C286.805 278.12 286.917 278.381 286.917 278.712L286.933 287.88ZM300.931 287.752C301.059 288.189 301.23 288.52 301.443 288.744C301.166 289.064 300.755 289.224 300.211 289.224C299.88 289.224 299.598 289.155 299.363 289.016C299.139 288.877 299 288.675 298.947 288.408L298.227 285.72H294.611L294.083 287.784C294.008 288.061 293.971 288.296 293.971 288.488C293.971 288.712 294.03 288.883 294.147 289C293.944 289.075 293.758 289.128 293.587 289.16C293.427 289.203 293.23 289.224 292.995 289.224C292.59 289.224 292.291 289.155 292.099 289.016C291.918 288.877 291.827 288.653 291.827 288.344C291.827 288.088 291.896 287.725 292.035 287.256L295.187 277.896C295.774 277.704 296.36 277.608 296.947 277.608C297.587 277.608 297.966 277.837 298.083 278.296L300.931 287.752ZM297.923 284.584L296.387 278.856L294.899 284.584H297.923ZM295.939 277.08C295.875 277.048 295.8 276.973 295.715 276.856C295.64 276.739 295.603 276.659 295.603 276.616L297.907 274.52C298.099 274.605 298.318 274.781 298.563 275.048C298.819 275.315 298.99 275.565 299.075 275.8L295.939 277.08ZM303.428 289.224C303.097 289.224 302.809 289.133 302.564 288.952C302.766 288.408 302.868 287.672 302.868 286.744V280.12C302.868 279.235 302.83 278.499 302.756 277.912C302.82 277.827 302.942 277.763 303.124 277.72C303.316 277.677 303.513 277.656 303.716 277.656C303.982 277.656 304.148 277.688 304.212 277.752C304.478 278.136 305.241 279.165 306.5 280.84C307.641 282.365 308.494 283.528 309.06 284.328C309.636 285.128 310.041 285.784 310.276 286.296L309.748 279.112L309.732 278.888C309.732 278.536 309.812 278.253 309.972 278.04C310.142 277.827 310.388 277.704 310.708 277.672C311.049 277.651 311.337 277.72 311.572 277.88C311.433 278.296 311.364 278.952 311.364 279.848L311.348 286.776C311.348 287.725 311.38 288.451 311.444 288.952C311.369 289.027 311.241 289.085 311.06 289.128C310.889 289.181 310.708 289.208 310.516 289.208C310.292 289.208 310.132 289.181 310.036 289.128C307.166 285.768 305.161 283.021 304.02 280.888L304.468 288.024C304.5 288.365 304.404 288.653 304.18 288.888C303.956 289.112 303.705 289.224 303.428 289.224ZM315.271 289.224C314.919 289.224 314.631 289.128 314.407 288.936C314.183 288.744 314.071 288.483 314.071 288.152V280.12C314.071 279.309 313.97 278.637 313.767 278.104C313.884 277.987 314.044 277.88 314.247 277.784C314.46 277.688 314.7 277.64 314.967 277.64C315.319 277.64 315.607 277.736 315.831 277.928C316.055 278.12 316.167 278.381 316.167 278.712V286.744C316.167 287.587 316.268 288.259 316.471 288.76C316.354 288.877 316.188 288.984 315.975 289.08C315.772 289.176 315.538 289.224 315.271 289.224ZM314.231 277.08C314.167 277.048 314.092 276.973 314.007 276.856C313.932 276.739 313.895 276.659 313.895 276.616L316.199 274.52C316.391 274.605 316.61 274.781 316.855 275.048C317.111 275.315 317.282 275.565 317.367 275.8L314.231 277.08Z" fill="#5B161B"/>
<path d="M200.708 210.224C200.356 210.224 200.068 210.128 199.844 209.936C199.62 209.744 199.508 209.483 199.508 209.152V201.12C199.508 200.309 199.407 199.637 199.204 199.104C199.322 198.987 199.482 198.88 199.684 198.784C199.898 198.688 200.138 198.64 200.404 198.64C200.756 198.64 201.044 198.736 201.268 198.928C201.492 199.12 201.604 199.381 201.604 199.712V207.744C201.604 208.587 201.706 209.259 201.908 209.76C201.791 209.877 201.626 209.984 201.412 210.08C201.21 210.176 200.975 210.224 200.708 210.224ZM212.433 208.56C212.518 208.795 212.561 208.992 212.561 209.152C212.561 209.483 212.433 209.76 212.177 209.984C211.921 210.197 211.59 210.304 211.185 210.304C210.609 210.304 210.166 210.096 209.857 209.68C209.548 209.264 209.276 208.704 209.041 208L208.561 206.56C208.401 206.091 208.182 205.707 207.905 205.408C207.638 205.109 207.233 204.96 206.689 204.96H206.417V207.744C206.417 208.587 206.518 209.259 206.721 209.76C206.604 209.877 206.438 209.984 206.225 210.08C206.022 210.176 205.788 210.224 205.521 210.224C205.169 210.224 204.881 210.128 204.657 209.936C204.433 209.744 204.321 209.483 204.321 209.152V201.12C204.321 200.309 204.22 199.637 204.017 199.104C204.134 198.987 204.294 198.88 204.497 198.784C204.71 198.688 204.95 198.64 205.217 198.64C205.569 198.64 205.852 198.736 206.065 198.928C206.289 199.12 206.401 199.381 206.401 199.712L206.417 204.192L206.785 204.096C207.372 203.925 207.868 203.621 208.273 203.184C208.689 202.747 208.998 202.256 209.201 201.712C209.414 201.168 209.521 200.656 209.521 200.176C209.521 199.888 209.489 199.637 209.425 199.424C209.372 199.2 209.308 199.029 209.233 198.912C209.542 198.784 209.83 198.72 210.097 198.72C211.068 198.72 211.553 199.248 211.553 200.304C211.553 201.104 211.27 201.877 210.705 202.624C210.15 203.371 209.318 203.957 208.209 204.384C208.817 204.448 209.286 204.603 209.617 204.848C209.958 205.093 210.225 205.451 210.417 205.92L211.137 207.616C211.329 208.021 211.484 208.299 211.601 208.448C211.718 208.597 211.862 208.677 212.033 208.688H212.097C212.204 208.688 212.316 208.645 212.433 208.56ZM215.38 210.224C215.028 210.224 214.74 210.128 214.516 209.936C214.292 209.744 214.18 209.483 214.18 209.152V201.12C214.18 200.309 214.079 199.637 213.876 199.104C213.994 198.987 214.154 198.88 214.356 198.784C214.57 198.688 214.81 198.64 215.076 198.64C215.428 198.64 215.716 198.736 215.94 198.928C216.164 199.12 216.276 199.381 216.276 199.712V207.744C216.276 208.587 216.378 209.259 216.58 209.76C216.463 209.877 216.298 209.984 216.084 210.08C215.882 210.176 215.647 210.224 215.38 210.224ZM223.153 210.224C221.649 210.224 220.481 209.723 219.649 208.72C218.827 207.707 218.417 206.272 218.417 204.416C218.417 202.571 218.843 201.147 219.697 200.144C220.55 199.131 221.745 198.624 223.281 198.624C223.857 198.624 224.411 198.699 224.945 198.848C225.478 198.997 225.915 199.216 226.257 199.504C226.598 199.792 226.769 200.123 226.769 200.496C226.769 200.837 226.619 201.131 226.321 201.376C226.022 201.611 225.606 201.723 225.073 201.712C224.913 200.133 224.326 199.344 223.313 199.344C222.427 199.344 221.771 199.765 221.345 200.608C220.929 201.44 220.721 202.709 220.721 204.416C220.721 206.123 220.923 207.397 221.329 208.24C221.745 209.072 222.39 209.488 223.265 209.488C223.979 209.488 224.475 209.184 224.753 208.576C225.03 207.968 225.169 207.259 225.169 206.448C225.169 205.925 225.099 205.477 224.961 205.104C224.822 204.731 224.566 204.459 224.193 204.288C224.278 204.085 224.438 203.931 224.673 203.824C224.907 203.707 225.163 203.648 225.441 203.648C225.995 203.648 226.443 203.845 226.785 204.24C227.126 204.624 227.297 205.189 227.297 205.936C227.297 206.853 227.11 207.637 226.737 208.288C226.374 208.928 225.878 209.413 225.249 209.744C224.619 210.064 223.921 210.224 223.153 210.224ZM237.462 208.752C237.59 209.189 237.761 209.52 237.974 209.744C237.697 210.064 237.286 210.224 236.742 210.224C236.412 210.224 236.129 210.155 235.894 210.016C235.67 209.877 235.532 209.675 235.478 209.408L234.758 206.72H231.142L230.614 208.784C230.54 209.061 230.502 209.296 230.502 209.488C230.502 209.712 230.561 209.883 230.678 210C230.476 210.075 230.289 210.128 230.118 210.16C229.958 210.203 229.761 210.224 229.526 210.224C229.121 210.224 228.822 210.155 228.63 210.016C228.449 209.877 228.358 209.653 228.358 209.344C228.358 209.088 228.428 208.725 228.566 208.256L231.718 198.896C232.305 198.704 232.892 198.608 233.478 198.608C234.118 198.608 234.497 198.837 234.614 199.296L237.462 208.752ZM234.454 205.584L232.918 199.856L231.43 205.584H234.454ZM240.599 210.224C240.247 210.224 239.959 210.128 239.735 209.936C239.511 209.744 239.399 209.483 239.399 209.152V201.12C239.399 200.309 239.298 199.637 239.095 199.104C239.212 198.987 239.372 198.88 239.575 198.784C239.788 198.688 240.028 198.64 240.295 198.64C240.647 198.64 240.935 198.736 241.159 198.928C241.383 199.12 241.495 199.381 241.495 199.712V207.744C241.495 208.587 241.596 209.259 241.799 209.76C241.682 209.877 241.516 209.984 241.303 210.08C241.1 210.176 240.866 210.224 240.599 210.224Z" fill="#471518"/>
</svg>
