<svg xmlns="http://www.w3.org/2000/svg" fill="none" viewBox="13.26 2.24 420.26 408.69">
<g style="mix-blend-mode:multiply">
<path d="M261.406 186.774C267.699 260.567 229.45 311.235 159.264 317.202C89.0772 323.169 19.6863 280.852 13.7195 210.666C7.75267 140.479 60.2773 86.3694 130.464 80.4025C200.65 74.4357 255.114 112.981 261.406 186.774Z" fill="#F1CDBC"/>
</g>
<g style="mix-blend-mode:multiply">
<path d="M402.925 286.041C354.928 341.246 281.082 356.349 227.152 313C173.221 269.651 165.277 190.002 209.407 135.1C253.538 80.1974 332.371 78.8423 386.301 122.192C440.232 165.541 450.922 230.836 402.925 286.041Z" fill="#F3D9C1"/>
</g>
<g style="mix-blend-mode:multiply">
<path d="M215.747 245.728C145.312 244.986 94.5506 185.093 95.2584 117.859C95.9662 50.6243 147.875 1.50926 218.311 2.25079C288.747 2.99232 334.861 46.0024 338.634 116.245C342.407 186.487 286.183 246.469 215.747 245.728Z" fill="#F2B9B1"/>
</g>
<g style="mix-blend-mode:multiply">
<path d="M238.694 408.92C165.498 420.494 103.38 381.442 91.4269 312.024C79.4742 242.606 127.145 181.078 196.563 169.125C265.981 157.172 330.86 199.321 342.813 268.74C354.765 338.158 311.889 397.346 238.694 408.92Z" fill="#FFE7CE"/>
</g>
</svg>