<svg width="112" height="104" viewBox="0 0 112 104" fill="none" xmlns="http://www.w3.org/2000/svg">
<path d="M89.091 101.502C99.4939 100.302 102.016 96.9438 103.907 90.7066C105.799 84.4694 105.798 18.4992 103.907 12.262C102.016 6.02482 98.2328 5.78493 90.9823 3.62589C83.7318 1.46686 45.8123 1.44925 28.16 3.62589C10.5078 5.80252 4.95989 11.4151 3.34624 29.2643C1.73257 47.1136 3.34624 77.5123 3.34624 82.7899C3.34624 88.0676 7.12909 98.3834 19.4234 100.062C30.261 101.543 78.6881 102.701 89.091 101.502Z" stroke="#8D2E2A" stroke-width="4"/>
<path d="M49.9869 75.6091C49.5277 73.5452 48.2417 73.0449 45.8534 72.6696C43.4651 72.2943 18.2045 72.2944 15.8162 72.6696C13.4279 73.0449 13.336 73.7954 12.5093 75.2339C11.6826 76.6724 11.6759 84.1956 12.5093 87.6979C13.3428 91.2001 15.4919 92.3008 22.3265 92.6209C29.1612 92.9411 40.8011 92.6209 42.822 92.6209C44.8429 92.6209 48.7929 91.8704 49.4358 89.4312C50.0026 87.281 50.4462 77.6731 49.9869 75.6091Z" stroke="#8D2E2A" stroke-width="4"/>
<path d="M109.185 23.231C108.739 25.2416 107.488 25.7289 105.166 26.0945C102.843 26.4601 78.2776 26.46 75.955 26.0945C73.6325 25.7289 73.5431 24.9978 72.7392 23.5965C71.9352 22.1952 71.9287 14.8666 72.7392 11.4549C73.5497 8.04328 75.6396 6.97105 82.2862 6.65918C88.9327 6.34731 100.252 6.65918 102.218 6.65918C104.183 6.65918 108.024 7.39029 108.649 9.76639C109.201 11.861 109.632 21.2204 109.185 23.231Z" fill="white" stroke="#8D2E2A" stroke-width="4"/>
<path d="M68.249 63.0082C67.8067 64.9815 66.4968 68.4106 59.59 69.6435C52.6832 70.8765 38.1706 70.0023 35.8705 69.6435C33.5703 69.2848 33.4819 68.5672 32.6857 67.1919C31.8895 65.8165 31.883 58.6236 32.6857 55.2751C33.4884 51.9267 35.5581 50.8743 42.1405 50.5682C48.7228 50.2621 59.9331 50.5682 61.8794 50.5682C63.8256 50.5682 67.6298 51.2858 68.249 53.6179C68.7949 55.6737 68.6914 61.0349 68.249 63.0082Z" stroke="#8D2E2A" stroke-width="4"/>
<path d="M52.2752 32.0794C53.1757 30.2752 54.3246 28.8366 56.6185 28.5495C58.9125 28.2624 81.1791 28.89 83.4731 29.1771C85.7671 29.4641 87.0749 30.9812 87.4501 33.0992C87.8252 35.2171 87.9156 40.0579 87.4501 43.4536C86.9845 46.8492 84.8435 47.1961 80.3942 47.8237C75.9449 48.4512 62.9679 48.5296 59.2072 47.8237C55.4465 47.1177 52.599 44.6299 51.9814 42.7639C51.4371 41.1191 51.3748 33.8836 52.2752 32.0794Z" stroke="#8D2E2A" stroke-width="4"/>
</svg>
