<svg width="112" height="91" viewBox="0 0 112 91" fill="none" xmlns="http://www.w3.org/2000/svg">
<path d="M27.9995 52.0005C49.3333 52.0005 65.3328 86.6672 83.9995 86.6672C102.666 86.6672 108 80.0005 108 69.3338C108 58.6672 102.666 52.0005 83.9995 52.0005C62.6667 52.0005 49.3333 86.6672 27.9995 86.6672C9.33279 86.6672 4 80.0005 4 69.3338C4 58.6672 11.9995 52.0005 27.9995 52.0005Z" stroke="#E9CB9E" stroke-width="8"/>
<path d="M43.9998 20C43.9998 30.6667 36.8363 36 27.9998 36C19.1632 36 11.9998 30.6667 11.9998 20C11.9998 9.33333 19.1632 4 27.9998 4C36.8363 4 43.9998 9.33333 43.9998 20Z" stroke="#E9CB9E" stroke-width="8"/>
<path d="M86.6665 36C75.9998 36 70.6665 28.8366 70.6665 20C70.6665 11.1634 75.9998 4 86.6665 4C97.3332 4 102.667 11.1634 102.667 20C102.667 28.8366 97.3332 36 86.6665 36Z" stroke="#E9CB9E" stroke-width="8"/>
</svg>
