<svg width="402" height="300" viewBox="0 0 402 300" fill="none" xmlns="http://www.w3.org/2000/svg">
<path d="M94.3056 160.615C134.559 160.615 169.874 192.703 203.885 225.397C236.593 192.703 269.439 160.615 309.69 160.615C381.485 160.615 396 186.256 396 227.282C396 268.308 381.485 293.949 309.69 293.949C273.116 293.949 239.204 259.346 203.885 225.397C169.921 259.346 136.106 293.949 94.3056 293.949C22.5107 293.949 6 268.308 6 227.282C6 186.256 32.7671 160.615 94.3056 160.615Z" fill="#F1B38D"/>
<path d="M155.846 67.5385C155.846 108.564 128.294 129.077 94.3073 129.077C60.3205 129.077 32.7688 108.564 32.7688 67.5385C32.7688 26.5128 60.3205 6 94.3073 6C128.294 6 155.846 26.5128 155.846 67.5385Z" fill="#E59079"/>
<path d="M319.948 129.077C278.922 129.077 258.409 101.525 258.409 67.5385C258.409 33.5517 278.922 6 319.948 6C360.974 6 381.486 33.5517 381.486 67.5385C381.486 101.525 360.974 129.077 319.948 129.077Z" fill="#DA7A5C"/>
<path d="M203.885 225.397C169.874 192.703 134.559 160.615 94.3056 160.615C32.7671 160.615 6 186.256 6 227.282C6 268.308 22.5107 293.949 94.3056 293.949C136.106 293.949 169.921 259.346 203.885 225.397ZM203.885 225.397C239.204 259.346 273.116 293.949 309.69 293.949C381.485 293.949 396 268.308 396 227.282C396 186.256 381.485 160.615 309.69 160.615C269.439 160.615 236.593 192.703 203.885 225.397ZM155.846 67.5385C155.846 108.564 128.294 129.077 94.3073 129.077C60.3205 129.077 32.7688 108.564 32.7688 67.5385C32.7688 26.5128 60.3205 6 94.3073 6C128.294 6 155.846 26.5128 155.846 67.5385ZM319.948 129.077C278.922 129.077 258.409 101.525 258.409 67.5385C258.409 33.5517 278.922 6 319.948 6C360.974 6 381.486 33.5517 381.486 67.5385C381.486 101.525 360.974 129.077 319.948 129.077Z" stroke="#F3D1B3" stroke-width="12"/>
</svg>
