<svg width="440" height="358" viewBox="0 0 440 358" fill="none" xmlns="http://www.w3.org/2000/svg">
<path d="M112.306 204.615C152.559 204.615 187.874 236.703 221.885 269.397C254.593 236.703 287.439 204.615 327.69 204.615C399.485 204.615 420 230.256 420 271.282C420 312.308 399.485 337.949 327.69 337.949C291.116 337.949 257.204 303.346 221.885 269.397C187.921 303.346 154.106 337.949 112.306 337.949C40.5107 337.949 20 312.308 20 271.282C20 230.256 50.7671 204.615 112.306 204.615Z" fill="#F1B38D"/>
<path d="M173.846 81.5385C173.846 122.564 146.294 143.077 112.307 143.077C78.3205 143.077 50.7688 122.564 50.7688 81.5385C50.7688 40.5128 78.3205 20 112.307 20C146.294 20 173.846 40.5128 173.846 81.5385Z" fill="#E59079"/>
<path d="M337.948 143.077C296.922 143.077 276.409 115.525 276.409 81.5385C276.409 47.5517 296.922 20 337.948 20C378.974 20 399.486 47.5517 399.486 81.5385C399.486 115.525 378.974 143.077 337.948 143.077Z" fill="#DA7A5C"/>
<path d="M175.874 324.522C192.031 312.898 207.324 298.054 222.013 283.407C237.194 298.043 252.695 312.87 268.377 324.449C286.491 337.822 306.236 347.949 327.69 347.949C364.379 347.949 390.312 341.475 407.1 327.74C424.416 313.573 430 293.414 430 271.282C430 249.15 424.416 228.991 407.1 214.824C390.312 201.089 364.379 194.615 327.69 194.615C304.774 194.615 284.509 203.779 266.232 216.548C250.632 227.447 235.899 241.399 221.761 255.406L221.748 255.394L221.729 255.413C206.883 241.323 191.319 227.347 174.994 216.433C156.001 203.735 135.164 194.615 112.306 194.615C80.3536 194.615 54.8386 201.242 37.0757 214.564C18.8964 228.199 10 247.985 10 271.282C10 293.413 15.5828 313.573 32.8972 327.739C49.6849 341.475 75.6171 347.949 112.306 347.949C136.103 347.949 157.041 338.069 175.874 324.522ZM112.307 153.077C131.256 153.077 149.242 147.347 162.596 135.048C176.084 122.625 183.846 104.416 183.846 81.5385C183.846 58.6606 176.084 40.4516 162.596 28.0289C149.242 15.7303 131.256 10 112.307 10C93.3587 10 75.3722 15.7303 62.0185 28.0289C48.5302 40.4516 40.7688 58.6606 40.7688 81.5385C40.7688 104.416 48.5302 122.625 62.0185 135.048C75.3722 147.347 93.3587 153.077 112.307 153.077ZM266.409 81.5385C266.409 100.487 272.14 118.474 284.438 131.827C296.861 145.316 315.07 153.077 337.948 153.077C360.826 153.077 379.035 145.316 391.457 131.827C403.756 118.474 409.486 100.487 409.486 81.5385C409.486 62.5898 403.756 44.6033 391.457 31.2497C379.035 17.7614 360.826 10 337.948 10C315.07 10 296.861 17.7614 284.438 31.2497C272.14 44.6033 266.409 62.5898 266.409 81.5385Z" stroke="#F3D1B3" stroke-width="20"/>
<path d="M327.69 337.949C291.115 337.949 257.203 303.346 221.885 269.396C254.592 236.703 287.439 204.615 327.69 204.615C399.485 204.615 420 230.256 420 271.282C420 312.308 399.485 337.949 327.69 337.949Z" fill="#E6986B"/>
</svg>
